<ttFont>
<head>
    <!-- Most of this table will be recalculated by the compiler -->
    <tableVersion value="1.0"/>
    <fontRevision value="4.00099"/>
    <checkSumAdjustment value="0x56d41395"/>
    <magicNumber value="0x5f0f3cf5"/>
    <flags value="00000000 00000011"/>
    <unitsPerEm value="1000"/>
    <created value="Mon Mar 26 22:59:03 2018"/>
    <modified value="Mon Mar 26 22:59:03 2018"/>
    <xMin value="-626"/>
    <yMin value="-627"/>
    <xMax value="2420"/>
    <yMax value="1135"/>
    <macStyle value="00000000 00000000"/>
    <lowestRecPPEM value="3"/>
    <fontDirectionHint value="2"/>
    <indexToLocFormat value="0"/>
    <glyphDataFormat value="0"/>
  </head>
          <CharString index="0">
            -39 callgsubr
            -38 -8 232 callsubr
            7 vlineto
            158 131 74 176 150 -99 82 -143 -150 -92 -90 -125 -11 1 -12 1 -11 hvcurveto
            203 27 hlineto
            27 11 19 26 25 10 -20 -23 -79 -83 -14 -77 vhcurveto
            -135 -203 hlineto
            -148 99 -92 158 144 92 79 140 vhcurveto
            return
          </CharString>
          <CharString index="1">
            204 1 callgsubr
            -31 -18 -27 -36 -7 -8 1 2 -8 vhcurveto
            -155 vlineto
            -9 27 26 -3 26 hhcurveto
            120 85 85 147 121 -68 104 -130 -59 -46 -19 -32 -31 hvcurveto
            109 vlineto
            return
          </CharString>
          <CharString index="2">
            -90 callsubr
            -101 callgsubr
            return
          </CharString>
          <CharString index="3">
            rmoveto
            -102 callgsubr
            return
          </CharString>
          <CharString index="4">
            -99 callsubr
            35 return
          </CharString>
          <CharString index="5">
            50 37 37 48 50 -37 37 -50 -48 -37 -37 -50 -48 37 -37 48 hvcurveto
            return
          </CharString>
          <CharString index="6">
            -96 callgsubr
            49 return
          </CharString>
          <CharString index="7">
            221 332 hlineto
            144 -110 96 -170 -147 -110 -93 -125 -29 vhcurveto
            224 hlineto
            21 8 20 19 33 hhcurveto
            36 23 -24 -47 hvcurveto
            -97 hlineto
            -177 -77 -72 -100 -105 80 -57 97 72 76 31 56 27 hvcurveto
            -128 110 rmoveto
            28 23 19 41 vhcurveto
            62 -12 hlineto
            -41 -36 -37 -44 -28 -18 15 28 vhcurveto
            endchar
          </CharString>
          <CharString index="8">
            -3 hlineto
            -77 callsubr
            return
          </CharString>
          <CharString index="9">
            -96 callsubr
            -33 callsubr
            hvcurveto
            return
          </CharString>
          <CharString index="10">
            -169 395 -95 callgsubr
            return
          </CharString>
          <CharString index="11">
            -95 callsubr
            63 135 return
          </CharString>
          <CharString index="12">
            -135 -120 -70 -156 205 callsubr
            116 104 return
          </CharString>
          <CharString index="13">
            50 callsubr
            -134 73 -101 129 -37 callsubr
            return
          </CharString>
          <CharString index="14">
            -97 callsubr
            196 return
          </CharString>
          <CharString index="15">
            rmoveto
            -49 -22 37 46 hvcurveto
            181 145 -181 vlineto
            -45 -24 -38 -50 vhcurveto
            return
          </CharString>
          <CharString index="16">
            -22 616 282 rmoveto
            180 -128 109 -170 -170 -128 -109 -180 -180 128 -109 170 170 128 109 180 vhcurveto
            -371 hmoveto
            67 34 30 39 39 34 -30 -67 -67 -34 -30 -39 -40 -33 30 67 vhcurveto
            return
          </CharString>
          <CharString index="17">
            -38 callgsubr
            -202 hlineto
            98 callsubr
            return
          </CharString>
          <CharString index="18">
            -93 callgsubr
            27 38 return
          </CharString>
          <CharString index="19">
            -90 callgsubr
            -111 -86 -67 -116 77 callgsubr
            -48 -14 -63 -43 -86 vvcurveto
            return
          </CharString>
          <CharString index="20">
            -73 callsubr
            -90 vhcurveto
            return
          </CharString>
          <CharString index="21">
            -169 286 138 callgsubr
            40 14 -15 -21 -20 -14 -13 -25 -25 -19 12 28 hvcurveto
            -183 -257 192 94 hlineto
            -13 21 37 -12 44 hhcurveto
            99 60 63 89 20 -2 18 -4 17 hvcurveto
            return
          </CharString>
          <CharString index="22">
            122 -102 177 174 109 104 161 vhcurveto
            -194 hlineto
            -53 -35 -36 -59 -57 -33 34 48 56 46 30 54 vhcurveto
            160 222 hlineto
            return
          </CharString>
          <CharString index="23">
            -78 callgsubr
            -61 callsubr
            return
          </CharString>
          <CharString index="24">
            167 callgsubr
            -156 -72 -91 -113 -45 callsubr
            -43 vlineto
            -133 150 callsubr
            97 144 callsubr
            79 95 146 hvcurveto
            return
          </CharString>
          <CharString index="25">
            39 647 564 rmoveto
            -222 -299 hlineto
            -54 -30 -33 -49 -48 -31 33 54 vhcurveto
            299 -221 -327 vlineto
            -146 76 -95 130 85 56 41 49 32 vhcurveto
            -86 return
          </CharString>
          <CharString index="26">
            rmoveto
            -107 callsubr
            endchar
          </CharString>
          <CharString index="27">
            -59 -52 41 65 8 1 8 2 7 hvcurveto
            167 -114 rlineto
            -9 -16 -20 -6 -23 hhcurveto
            return
          </CharString>
          <CharString index="28">
            rmoveto
            169 return
          </CharString>
          <CharString index="29">
            -64 callsubr
            414 339 rmoveto
            169 return
          </CharString>
          <CharString index="30">
            57 -32 -18 callsubr
            6 callsubr
            -53 callgsubr
            return
          </CharString>
          <CharString index="31">
            204 571 return
          </CharString>
          <CharString index="32">
            138 callsubr
            -198 116 -108 186 104 77 46 64 48 vhcurveto
            -6 24 25 -3 27 hhcurveto
            return
          </CharString>
          <CharString index="33">
            14 -42 -35 hvcurveto
            -29 168 33 callsubr
            return
          </CharString>
          <CharString index="34">
            111 -43 callgsubr
            return
          </CharString>
          <CharString index="35">
            135 callgsubr
            -16 23 44 vhcurveto
            156 -205 -162 vlineto
            -140 84 -99 169 return
          </CharString>
          <CharString index="36">
            -79 callgsubr
            352 537 rmoveto
            return
          </CharString>
          <CharString index="37">
            hmoveto
            -67 callgsubr
            return
          </CharString>
          <CharString index="38">
            -12 2 -14 2 -10 vhcurveto
            204 hlineto
            -2 10 -1 9 9 vvcurveto
            22 11 17 20 23 8 -18 -24 vhcurveto
            return
          </CharString>
          <CharString index="39">
            rmoveto
            -148 vlineto
            259 94 rlineto
            164 vlineto
            return
          </CharString>
          <CharString index="40">
            rmoveto
            28 22 20 31 38 17 -27 -24 -23 -13 -18 -20 -15 vhcurveto
            -49 -2 -26 29 32 vvcurveto
            287 -596 rmoveto
            336 -168 vlineto
            -30 -19 -37 -43 -33 -25 23 32 31 19 18 33 16 vhcurveto
            return
          </CharString>
          <CharString index="41">
            545 -62 callgsubr
            return
          </CharString>
          <CharString index="42">
            32 hlineto
            39 14 -15 -20 -23 -21 -11 -27 -20 -33 7 34 -3 hvcurveto
            -203 hlineto
            return
          </CharString>
          <CharString index="43">
            -71 -40 38 44 -5 hvcurveto
            107 20 31 81 -68 callgsubr
            return
          </CharString>
          <CharString index="44">
            571 -79 callsubr
            return
          </CharString>
          <CharString index="45">
            -65 callsubr
            -129 8 116 -64 141 hhcurveto
            -55 callgsubr
            return
          </CharString>
          <CharString index="46">
            175 97 108 151 107 -45 69 -62 37 hvcurveto
            94 160 169 return
          </CharString>
          <CharString index="47">
            -45 callgsubr
            46 return
          </CharString>
          <CharString index="48">
            rmoveto
            -166 88 rlineto
            -144 vlineto
            166 -75 165 75 rlineto
            144 vlineto
            endchar
          </CharString>
          <CharString index="49">
            -9 2 -13 2 -13 vhcurveto
            183 hlineto
            -2 9 -2 9 12 vvcurveto
            27 14 172 callgsubr
            -68 -66 -23 -106 vhcurveto
            return
          </CharString>
          <CharString index="50">
            rmoveto
            218 -329 -15 89 vvcurveto
            24 14 12 18 24 23 -13 -43 2 vhcurveto
            239 hlineto
            147 -6 -110 82 -171 hhcurveto
            -151 -120 -74 -142 hvcurveto
            -4 -242 334 35 1 -96 rrcurveto
            -25 -21 -10 -22 -22 -28 9 52 -4 vhcurveto
            -236 hlineto
            return
          </CharString>
          <CharString index="51">
            -50 -14 -40 -62 -13 vhcurveto
            48 -46 -74 28 -106 175 callgsubr
            82 21 -48 -35 hvcurveto
            -20 vlineto
            -121 82 -99 155 142 201 callgsubr
            -101 callgsubr
            67 return
          </CharString>
          <CharString index="52">
            rmoveto
            -49 -30 34 42 42 30 34 49 return
          </CharString>
          <CharString index="53">
            -102 522 708 rmoveto
            -472 -708 472 177 -250 100 220 167 -220 87 250 hlineto
            return
          </CharString>
          <CharString index="54">
            -142 76 -112 145 55 43 16 27 30 vhcurveto
            246 callsubr
            return
          </CharString>
          <CharString index="55">
            115 539 hmoveto
            234 hlineto
            -258 708 rlineto
            -256 hlineto
            -259 -708 rlineto
            233 hlineto
            35 107 rlineto
            236 hlineto
            return
          </CharString>
          <CharString index="56">
            vvcurveto
            69 -72 callgsubr
            return
          </CharString>
          <CharString index="57">
            hhcurveto
            78 60 22 37 41 hvcurveto
            -122 -76 callsubr
            return
          </CharString>
          <CharString index="58">
            98 -33 -86 53 -108 hhcurveto
            -130 -106 -73 -137 -6 hvcurveto
            192 hlineto
            30 9 26 7 17 hhcurveto
            36 20 -32 -39 -41 -20 -31 -36 -17 -26 7 31 -9 hvcurveto
            -192 hlineto
            -137 6 106 -72 130 hhcurveto
            113 90 58 107 28 hvcurveto
            return
          </CharString>
          <CharString index="59">
            -101 callgsubr
            68 return
          </CharString>
          <CharString index="60">
            rmoveto
            217 -295 -65 70 vvcurveto
            17 13 9 22 36 22 -18 -30 6 vhcurveto
            197 hlineto
            111 -16 -79 91 -161 hhcurveto
            -159 -81 -84 -102 hvcurveto
            -207 291 68 -74 vvcurveto
            -14 -14 -12 -23 -34 -27 15 34 -5 vhcurveto
            -213 hlineto
            return
          </CharString>
          <CharString index="61">
            -110 vlineto
            -56 callgsubr
            return
          </CharString>
          <CharString index="62">
            -69 callsubr
            -63 return
          </CharString>
          <CharString index="63">
            hhcurveto
            -42 -47 7 36 34 33 10 42 hvcurveto
            17 callsubr
            return
          </CharString>
          <CharString index="64">
            95 30 355 rmoveto
            -211 133 -149 217 187 127 112 167 29 vhcurveto
            -234 hlineto
            -47 -21 -42 -27 -50 hhcurveto
            -75 -46 61 94 94 46 61 75 50 42 -27 -47 21 hvcurveto
            234 hlineto
            167 -29 -127 112 -187 hhcurveto
            -217 -133 -149 -211 hvcurveto
            return
          </CharString>
          <CharString index="65">
            184 97 76 132 102 -68 69 -122 -107 -72 -48 -90 -12 2 -16 3 -15 hvcurveto
            143 hlineto
            -2 4 -1 5 5 vvcurveto
            12 9 12 16 16 10 -11 -17 -45 -46 -18 -58 -105 -37 60 70 88 69 48 89 vhcurveto
            return
          </CharString>
          <CharString index="66">
            rmoveto
            -222 -136 -149 -211 -211 137 -149 223 183 100 107 85 49 hvcurveto
            222 -361 -157 177 vlineto
            -44 -33 -41 -18 -50 hhcurveto
            -109 -50 55 110 94 48 61 86 46 32 -17 -27 17 hvcurveto
            234 hlineto
            151 -21 -121 98 -188 hhcurveto
            return
          </CharString>
          <CharString index="67">
            -49 20 282 rmoveto
            -180 119 -109 169 145 109 86 148 27 vhcurveto
            -235 hlineto
            -27 -8 -15 -17 -28 hhcurveto
            -34 -24 31 68 68 24 31 34 28 15 -17 -27 8 hvcurveto
            235 hlineto
            148 -27 -109 86 -145 hhcurveto
            -169 -119 -109 -180 hvcurveto
            return
          </CharString>
          <CharString index="68">
            vvcurveto
            122 -97 59 -120 -142 -99 -88 -117 -82 44 -48 50 -25 vhcurveto
            -66 -36 -57 -50 -93 vvcurveto
            -108 81 -69 111 49 44 14 28 27 vhcurveto
            -143 vlineto
            return
          </CharString>
          <CharString index="69">
            -150 -134 -73 -172 235 callsubr
            36 30 52 hvcurveto
            return
          </CharString>
          <CharString index="70">
            -16 callsubr
            hvcurveto
            4 callsubr
            return
          </CharString>
          <CharString index="71">
            21 callgsubr
            59 callgsubr
          </CharString>
          <CharString index="72">
            225 callgsubr
            vhcurveto
            -88 callsubr
            return
          </CharString>
          <CharString index="73">
            -8 callgsubr
            36 30 52 hvcurveto
            return
          </CharString>
          <CharString index="74">
            34 -6 28 -10 23 return
          </CharString>
          <CharString index="75">
            442 192 hmoveto
            276 hlineto
            82 402 82 -402 rlineto
            276 hlineto
            162 708 rlineto
            -239 hlineto
            -64 -446 -96 446 rlineto
            -242 hlineto
            -96 -446 -64 446 rlineto
            -239 hlineto
            return
          </CharString>
          <CharString index="76">
            vlineto
            -98 callsubr
            return
          </CharString>
          <CharString index="77">
            -169 771 -51 vlineto
            -48 -12 -38 -56 -15 vhcurveto
            52 -56 -86 20 -91 hhcurveto
            -163 hlineto
            -98 callsubr
            65 25 -34 -37 hvcurveto
            -40 vlineto
            -22 callgsubr
            return
          </CharString>
          <CharString index="78">
            63 45 -45 -62 -8 -1 -8 -1 -7 hvcurveto
            -167 113 rlineto
            11 18 20 6 23 hhcurveto
            return
          </CharString>
          <CharString index="79">
            36 hvcurveto
            38 -39 hlineto
            -32 -15 return
          </CharString>
          <CharString index="80">
            -157 -110 -87 -152 166 callgsubr
            hvcurveto
            -123 -77 callgsubr
            return
          </CharString>
          <CharString index="81">
            hhcurveto
            -60 -126 65 hlineto
            58 41 0 -88 58 hvcurveto
            39 -54 -26 0 -86 hhcurveto
            -56 -125 61 hlineto
            return
          </CharString>
          <CharString index="82">
            -55 callsubr
            46 return
          </CharString>
          <CharString index="83">
            rmoveto
            259 -94 rlineto
            148 vlineto
            -259 110 rlineto
            return
          </CharString>
          <CharString index="84">
            rmoveto
            -63 callgsubr
            301 -94 vlineto
            20 -23 -31 12 -43 hhcurveto
            -113 -76 -90 -116 -38 8 -36 15 -31 hvcurveto
            -17 -15 -26 -15 -44 hhcurveto
            return
          </CharString>
          <CharString index="85">
            267 vlineto
            43 3 18 30 38 hhcurveto
            193 callgsubr
            -22 -22 -32 -6 -6 1 1 -3 hvcurveto
            85 callgsubr
            return
          </CharString>
          <CharString index="86">
            -217 vlineto
            -128 76 -106 165 162 78 101 133 vhcurveto
            217 return
          </CharString>
          <CharString index="87">
            -60 callsubr
            35 30 51 45 26 -22 -42 17 hvcurveto
            -117 31 92 -71 141 -75 callgsubr
          </CharString>
          <CharString index="88">
            19 343 278 rmoveto
            -106 286 rlineto
            -247 hlineto
            235 -536 -142 -298 rlineto
            243 hlineto
            361 834 rlineto
            -245 hlineto
            return
          </CharString>
          <CharString index="89">
            -54 37 -90 76 callsubr
            78 callsubr
            return
          </CharString>
          <CharString index="90">
            -21 callgsubr
            endchar
          </CharString>
          <CharString index="91">
            63 47 21 36 30 return
          </CharString>
          <CharString index="92">
            -29 callgsubr
            endchar
          </CharString>
          <CharString index="93">
            42 21 -21 -29 -25 -14 -18 -26 -28 -13 21 21 hvcurveto
            -190 hlineto
            -129 95 -87 149 113 79 60 99 16 vhcurveto
            74 -222 return
          </CharString>
          <CharString index="94">
            -133 6 callgsubr
            return
          </CharString>
          <CharString index="95">
            -34 -24 23 33 vhcurveto
            return
          </CharString>
          <CharString index="96">
            rmoveto
            38 26 27 39 36 28 -27 -37 -39 -28 -25 -36 -38 -27 24 39 vhcurveto
            327 1 rmoveto
            37 27 27 37 39 26 -27 -38 -39 -27 -24 -38 -37 -27 25 39 vhcurveto
            return
          </CharString>
          <CharString index="97">
            188 callgsubr
            -91 81 -128 -114 -104 -66 -142 -58 callsubr
            -80 hlineto
            -5 -29 -1 -28 -27 vvcurveto
            return
          </CharString>
          <CharString index="98">
            32 192 callgsubr
            33 vhcurveto
            662 hmoveto
            -60 -38 36 48 -16 hvcurveto
            95 28 41 77 81 -51 callsubr
            return
          </CharString>
          <CharString index="99">
            rmoveto
            52 -41 42 -53 -52 -41 -42 -52 -51 41 -41 52 53 41 41 51 vhcurveto
            return
          </CharString>
          <CharString index="100">
            -76 -130 -38 8 -33 15 -28 hvcurveto
            -19 -15 -26 -16 -46 hhcurveto
            return
          </CharString>
          <CharString index="101">
            571 76 169 return
          </CharString>
          <CharString index="102">
            14 -42 -35 hvcurveto
            -29 168 29 vlineto
            return
          </CharString>
          <CharString index="103">
            -147 119 227 -31 hlineto
            -46 -10 -42 -70 vhcurveto
            259 -220 198 callgsubr
            414 339 rmoveto
            169 return
          </CharString>
          <CharString index="104">
            16 10 -5 -10 -10 -10 -6 -16 hvcurveto
            -150 -113 173 hlineto
            67 83 27 95 95 -82 27 -48 hvcurveto
            return
          </CharString>
          <CharString index="105">
            -50 callgsubr
            endchar
          </CharString>
          <CharString index="106">
            -169 68 -170 vlineto
            return
          </CharString>
          <CharString index="107">
            22 20 282 -6 callgsubr
            return
          </CharString>
          <CharString index="108">
            843 1512 -63 callsubr
            -1523 -169 1243 -90 -267 -163 vlineto
            -39 -15 -21 -31 -24 -23 16 35 vhcurveto
            10 vlineto
            136 -124 57 -105 -93 -56 -37 -57 -33 vhcurveto
            -103 callsubr
            15 42 50 38 18 -25 -43 4 vhcurveto
            -111 10 82 -74 158 hhcurveto
            55 callgsubr
            hvcurveto
            68 -308 63 callgsubr
            return
          </CharString>
          <CharString index="109">
            -106 callgsubr
            616 -6 88 callsubr
            -1561 -89 callsubr
            40 16 -30 -31 1 vhcurveto
            -1 -8 0 -8 -8 44 callsubr
          </CharString>
          <CharString index="110">
            32 callsubr
            404 221 callgsubr
            return
          </CharString>
          <CharString index="111">
            -100 196 267 vlineto
            103 callgsubr
            return
          </CharString>
          <CharString index="112">
            396 724 397 rmoveto
            45 40 -19 -44 hvcurveto
            -170 hlineto
            49 10 36 14 39 hhcurveto
            298 -194 rmoveto
            -235 hlineto
            -22 -10 -21 -14 -39 hhcurveto
            -41 -31 17 59 -7 hvcurveto
            391 hlineto
            3 14 2 16 14 vvcurveto
            177 -99 107 -139 -81 -58 -31 -53 -27 vhcurveto
            77 248 callgsubr
            -182 103 -107 130 75 54 33 51 27 hvcurveto
            -77 221 77 vlineto
            -52 28 57 -32 81 hhcurveto
            117 85 90 120 24 hvcurveto
            -777 79 rmoveto
            62 36 33 46 46 36 -33 -62 -62 -36 -33 -46 -46 -36 33 62 vhcurveto
            return
          </CharString>
          <CharString index="113">
            175 -10 callgsubr
            return
          </CharString>
          <CharString index="114">
            49 159 -16 hlineto
            -61 -26 return
          </CharString>
          <CharString index="115">
            264 -79 callsubr
            return
          </CharString>
          <CharString index="116">
            98 callsubr
            -48 callsubr
            return
          </CharString>
          <CharString index="117">
            28 callsubr
            52 hvcurveto
            return
          </CharString>
          <CharString index="118">
            hlineto
            -36 callgsubr
            return
          </CharString>
          <CharString index="119">
            -83 callsubr
            endchar
          </CharString>
          <CharString index="120">
            -4 -16 -7 -15 -10 rrcurveto
            75 -60 -102 43 -147 53 callsubr
            28 -4 24 -8 21 hvcurveto
            return
          </CharString>
          <CharString index="121">
            vlineto
            -68 90 callsubr
            endchar
          </CharString>
          <CharString index="122">
            -92 callsubr
            663 8 callsubr
            return
          </CharString>
          <CharString index="123">
            -156 -193 rcurveline
            218 hlineto
            153 218 rlineto
            -183 -27 callgsubr
          </CharString>
          <CharString index="124">
            -88 callsubr
            -132 return
          </CharString>
          <CharString index="125">
            rmoveto
            -174 hlineto
            -50 -26 -34 -62 -63 -25 34 50 vhcurveto
            -174 hlineto
            -142 80 -91 182 181 81 91 142 vhcurveto
            endchar
          </CharString>
          <CharString index="126">
            rmoveto
            -64 -29 42 62 hvcurveto
            46 vlineto
            168 -101 rlineto
            -29 -11 -24 -20 -40 hhcurveto
            return
          </CharString>
          <CharString index="127">
            rmoveto
            -71 -41 194 callgsubr
            246 callgsubr
            -68 callgsubr
            337 -232 200 callgsubr
            -706 -169 113 -31 vlineto
            -66 -15 -60 -113 vhcurveto
            -8 284 callgsubr
            vvcurveto
            -66 -38 -48 -92 238 callsubr
            vhcurveto
            -90 callgsubr
            -24 -22 -3 -6 -21 vhcurveto
            return
          </CharString>
          <CharString index="128">
            -74 551 42 rmoveto
            -178 hlineto
            -19 -8 -21 -16 -29 hhcurveto
            -38 -38 28 59 62 31 35 46 29 17 -12 -10 10 hvcurveto
            -63 -79 rlineto
            177 hlineto
            63 80 rlineto
            103 -11 -102 70 -127 hhcurveto
            -9 -10 0 -1 -9 hvcurveto
            -5 5 -2 7 6 vvcurveto
            20 15 8 19 vhcurveto
            167 183 120 169 -606 200 callsubr
            hlineto
            -105 -56 -56 -73 -47 20 -39 42 -27 hvcurveto
            -53 -40 -32 -63 -84 vvcurveto
            -157 104 -96 151 136 103 70 123 8 vhcurveto
            return
          </CharString>
          <CharString index="129">
            102 callsubr
            -721 -169 128 -31 vlineto
            -57 -15 -12 -66 vhcurveto
            return
          </CharString>
          <CharString index="130">
            25 hlineto
            167 callgsubr
            -29 245 callgsubr
            -750 -169 601 hlineto
            285 callsubr
            -45 callsubr
            -560 vlineto
            -95 callsubr
            64 134 183 callgsubr
            endchar
          </CharString>
          <CharString index="131">
            1040 rmoveto
            -163 hlineto
            -52 -37 -38 -62 -63 -38 38 52 vhcurveto
            -161 hlineto
            -153 94 -80 168 168 94 80 153 vhcurveto
            -190 22 rmoveto
            40 -31 33 -43 -39 -33 -33 -40 -41 33 -32 39 43 31 32 41 vhcurveto
            endchar
          </CharString>
          <CharString index="132">
            217 hlineto
            119 164 rlineto
            -124 15 callgsubr
            endchar
          </CharString>
          <CharString index="133">
            67 callgsubr
            172 callsubr
            return
          </CharString>
          <CharString index="134">
            221 327 hlineto
            146 -76 95 -130 -85 -56 -41 -49 -32 vhcurveto
            86 -222 -564 222 299 vlineto
            54 30 33 49 48 31 -33 -54 vhcurveto
            return
          </CharString>
          <CharString index="135">
            -60 callsubr
            36 30 return
          </CharString>
          <CharString index="136">
            rmoveto
            28 -23 22 -28 -27 -22 -22 -28 -27 22 -22 27 28 23 22 27 vhcurveto
            endchar
          </CharString>
          <CharString index="137">
            -79 callsubr
            -582 142 callsubr
            4 -72 38 -51 57 -32 -110 -148 rcurveline
            64 callsubr
            -109 145 rlineto
            53 32 29 51 66 vvcurveto
            134 -104 45 -104 vhcurveto
            164 callsubr
          </CharString>
          <CharString index="138">
            -169 75 -29 vlineto
            -75 35 -39 47 -16 vhcurveto
            -4 vlineto
            -46 -18 -45 -48 -73 vvcurveto
            return
          </CharString>
          <CharString index="139">
            rmoveto
            51 123 -136 99 callsubr
            return
          </CharString>
          <CharString index="140">
            29 vlineto
            35 14 42 49 41 23 -28 return
          </CharString>
          <CharString index="141">
            -1 callsubr
            -157 return
          </CharString>
          <CharString index="142">
            -1 149 402 rmoveto
            -67 -39 -34 -58 -80 vvcurveto
            -157 132 -79 148 148 132 79 157 80 -34 58 -67 39 vhcurveto
            51 29 34 49 72 vvcurveto
            103 -82 92 -182 -182 -82 -92 -103 -72 34 -49 51 -29 vhcurveto
            179 54 rmoveto
            -25 -21 18 41 38 20 23 26 26 20 -23 -38 -41 -21 -18 -25 hvcurveto
            -149 vmoveto
            40 25 -29 -40 -38 -23 -30 -42 -42 -23 30 38 40 25 29 40 hvcurveto
            endchar
          </CharString>
          <CharString index="143">
            33 callgsubr
            vvcurveto
            return
          </CharString>
          <CharString index="144">
            -140 488 564 rmoveto
            -465 -184 212 hlineto
            -215 -206 rlineto
            -174 478 184 -235 vlineto
            225 206 rlineto
            return
          </CharString>
          <CharString index="145">
            hlineto
            -96 callsubr
            return
          </CharString>
          <CharString index="146">
            63 135 -33 callsubr
            hvcurveto
            91 -322 return
          </CharString>
          <CharString index="147">
            135 callgsubr
            -13 23 37 -3 vhcurveto
            -1 2 rlineto
            114 -15 -97 92 -170 -40 callgsubr
            92 70 30 46 48 hvcurveto
            -22 33 44 -12 59 hhcurveto
            return
          </CharString>
          <CharString index="148">
            -104 callsubr
            631 305 -79 callsubr
            return
          </CharString>
          <CharString index="149">
            9 894 -63 callsubr
            -905 -169 214 -48 vlineto
            -75 -33 -42 -97 vhcurveto
            -19 -109 hlineto
            -198 116 -108 186 104 77 46 64 48 vhcurveto
            -6 24 25 113 callgsubr
            return
          </CharString>
          <CharString index="150">
            -106 callgsubr
            660 -11 -55 callsubr
            return
          </CharString>
          <CharString index="151">
            vvcurveto
            139 callgsubr
            vhcurveto
            78 callgsubr
          </CharString>
          <CharString index="152">
            -169 287 138 callgsubr
            38 16 -13 -23 -20 -14 -13 -25 -25 -19 12 29 -1 hvcurveto
            -183 -258 193 return
          </CharString>
          <CharString index="153">
            hhcurveto
            -54 -43 -19 -31 -28 hvcurveto
            -264 -239 -106 callgsubr
            return
          </CharString>
          <CharString index="154">
            -254 rlineto
            244 hlineto
            -154 271 rlineto
            101 33 52 79 93 vvcurveto
            130 -91 102 -178 vhcurveto
            return
          </CharString>
          <CharString index="155">
            -61 -20 -46 -104 vhcurveto
            -63 return
          </CharString>
          <CharString index="156">
            -122 178 585 -176 vlineto
            -36 -21 -30 -42 -38 -25 28 39 43 30 27 55 vhcurveto
            201 230 hlineto
            -249 -692 rmoveto
            -58 -1 -38 35 50 vvcurveto
            12 2 11 4 10 vhcurveto
            144 -96 rlineto
            -13 -14 -19 -8 -21 hhcurveto
            1 170 rmoveto
            37 5 29 14 20 22 rrcurveto
            -109 vlineto
            -8 -1 -7 -1 -7 vhcurveto
            -123 82 11 4 13 3 15 1 rlinecurve
            endchar
          </CharString>
          <CharString index="157">
            -56 callgsubr
            -137 -73 -98 -137 return
          </CharString>
          <CharString index="158">
            -169 77 218 callsubr
            return
          </CharString>
          <CharString index="159">
            -4 hlineto
            57 -31 -55 37 -90 hhcurveto
            -47 -48 -15 -32 -38 hvcurveto
            38 -45 -64 23 -86 -40 callgsubr
            73 57 17 30 43 hvcurveto
            -50 42 63 -30 82 hhcurveto
            -10 callgsubr
            112 callsubr
            -9 -12 -85 callgsubr
            42 48 -5 callsubr
            35 14 42 49 return
          </CharString>
          <CharString index="160">
            hhcurveto
            -45 38 callsubr
            return
          </CharString>
          <CharString index="161">
            164 129 94 163 137 -87 79 -107 29 hvcurveto
            50 246 169 return
          </CharString>
          <CharString index="162">
            hhcurveto
            161 callsubr
            vlineto
            -348 166 rmoveto
            -69 -34 45 56 -2 hvcurveto
            93 20 59 80 126 vvcurveto
            78 301 -93 vlineto
            19 -23 -32 12 -42 197 callgsubr
            -22 18 36 34 22 251 callsubr
          </CharString>
          <CharString index="163">
            rmoveto
            169 -750 -169 292 -45 -45 vlineto
            -105 -79 -53 -104 -153 137 -19 71 hvcurveto
            -51 callgsubr
          </CharString>
          <CharString index="164">
            -26 callsubr
            106 -17 0 -51 98 hvcurveto
            return
          </CharString>
          <CharString index="165">
            -25 572 509 rmoveto
            118 -7 -68 117 -171 hhcurveto
            -194 -80 -115 -269 -206 53 -161 226 159 99 95 151 153 -87 77 -124 -58 -47 -24 -36 -24 hvcurveto
            97 9 61 54 33 13 -20 -38 7 vhcurveto
            -42 -210 rmoveto
            35 24 -20 -37 -41 -23 -18 -36 -36 -23 18 41 37 24 20 35 hvcurveto
            endchar
          </CharString>
          <CharString index="166">
            -61 47 228 rmoveto
            -118 7 85 -117 166 hhcurveto
            199 65 145 251 207 -55 151 -226 -157 -101 -95 -151 -156 89 -77 122 58 47 24 36 24 hvcurveto
            -97 -6 -61 -54 -33 -16 20 38 -7 vhcurveto
            42 210 rmoveto
            -35 -24 20 37 41 23 18 36 36 23 -18 -41 -37 -24 -20 -35 hvcurveto
            endchar
          </CharString>
          <CharString index="167">
            84 189 -53 hlineto
            -29 -12 12 26 hvcurveto
            152 92 185 -92 136 -222 -136 -70 -185 70 vlineto
            endchar
          </CharString>
          <CharString index="168">
            52 vlineto
            57 21 78 196 200 21 -78 -57 vhcurveto
            -8 -83 51 callsubr
            -76 return
          </CharString>
          <CharString index="169">
            274 callsubr
            656 93 callsubr
            -98 -98 -48 -115 -33 hvcurveto
            -24 -10 -21 -18 -33 hhcurveto
            return
          </CharString>
          <CharString index="170">
            -169 558 -69 vlineto
            -40 -16 -30 -27 -18 -35 rrcurveto
            -4 hlineto
            57 -30 -55 38 -88 76 callsubr
            -159 97 -100 6 callsubr
            176 vlineto
            -1 -10 -11 0 -5 hhcurveto
            -40 -34 17 63 44 23 28 41 49 14 -43 -34 hvcurveto
            -36 168 36 vlineto
            34 14 43 49 36 22 -26 -42 vhcurveto
            return
          </CharString>
          <CharString index="171">
            204 hlineto
            65 98 64 -98 rlineto
            205 hlineto
            return
          </CharString>
          <CharString index="172">
            55 100 callgsubr
            return
          </CharString>
          <CharString index="173">
            rmoveto
            156 hlineto
            20 4 8 10 9 3 -7 -10 -19 -7 -7 -19 vhcurveto
            -21 -54 30 hlineto
            18 9 -6 -19 -17 -6 -4 -7 -9 -5 4 16 hvcurveto
            -172 hlineto
            -79 7 44 -54 149 hhcurveto
            105 67 35 68 41 -22 26 -62 14 hvcurveto
            4 vlineto
            50 8 25 24 42 vvcurveto
            63 -60 43 -107 -145 -44 -72 -68 vhcurveto
            endchar
          </CharString>
          <CharString index="174">
            124 callgsubr
            -8 284 callgsubr
            return
          </CharString>
          <CharString index="175">
            60 callgsubr
            304 254 callsubr
            -34 callsubr
            return
          </CharString>
          <CharString index="176">
            253 callsubr
            -156 -72 -89 -110 -12 2 -14 2 -11 vhcurveto
            198 hlineto
            -2 10 -1 7 9 vvcurveto
            20 11 18 23 27 10 -18 -25 vhcurveto
            return
          </CharString>
          <CharString index="177">
            -50 -37 -31 -57 -76 vvcurveto
            -149 104 -89 151 136 103 73 130 8 vhcurveto
            return
          </CharString>
          <CharString index="178">
            rmoveto
            -31 -23 18 36 34 23 19 31 34 16 -25 -28 1 hvcurveto
            -33 -21 -21 -30 vhcurveto
            return
          </CharString>
          <CharString index="179">
            214 883 -63 callsubr
            -894 -169 623 -83 -276 -94 vlineto
            -44 -16 -23 -31 -32 -15 23 44 vhcurveto
            94 -205 -100 vlineto
            -140 84 -99 169 128 79 70 105 23 vhcurveto
            92 -8 hlineto
            -354 -374 rlineto
            222 hlineto
            137 164 rlineto
            -106 190 571 vlineto
            return
          </CharString>
          <CharString index="180">
            -199 hlineto
            -32 -23 -19 -30 -27 -29 18 48 vhcurveto
            313 122 -51 vlineto
            -31 -19 -17 -39 8 vhcurveto
            -182 vlineto
            191 -28 65 92 153 vvcurveto
            56 return
          </CharString>
          <CharString index="181">
            65 callsubr
            199 return
          </CharString>
          <CharString index="182">
            -106 hlineto
            52 callgsubr
            return
          </CharString>
          <CharString index="183">
            hhcurveto
            -119 -121 -72 -176 return
          </CharString>
          <CharString index="184">
            171 callsubr
            277 callgsubr
            hlineto
            return
          </CharString>
          <CharString index="185">
            -151 97 -108 return
          </CharString>
          <CharString index="186">
            295 hlineto
            226 142 154 202 204 -142 148 -226 hvcurveto
            -73 -510 rmoveto
            return
          </CharString>
          <CharString index="187">
            218 hlineto
            138 295 callgsubr
            -106 callsubr
            endchar
          </CharString>
          <CharString index="188">
            97 callgsubr
            -107 71 -66 112 -30 vhcurveto
            -97 -131 rlineto
            64 callsubr
            -101 135 rlineto
            139 43 72 100 132 vvcurveto
            return
          </CharString>
          <CharString index="189">
            -105 712 -63 callsubr
            -723 -169 vlineto
            491 -629 rmoveto
            232 277 rlineto
            269 -376 -94 vlineto
            -44 -16 -23 -31 -32 -15 23 44 vhcurveto
            94 -205 -100 vlineto
            -140 84 -99 169 124 78 65 100 25 vhcurveto
            94 hlineto
            -353 -372 rlineto
            return
          </CharString>
          <CharString index="190">
            -100 -35 callgsubr
            return
          </CharString>
          <CharString index="191">
            -5 vlineto
            -52 -13 -58 -45 -87 vvcurveto
            -121 105 -62 123 140 103 80 126 22 vhcurveto
            -1 6 7 0 7 hhcurveto
            45 37 12 22 25 hvcurveto
            -122 200 311 -189 vlineto
            -35 -20 -28 -38 -37 -24 24 38 41 29 29 51 vhcurveto
            198 235 hlineto
            endchar
          </CharString>
          <CharString index="192">
            70 724 353 rmoveto
            57 -45 45 -57 -56 -45 -45 -57 -55 45 -45 56 57 45 45 55 vhcurveto
            return
          </CharString>
          <CharString index="193">
            332 454 rmoveto
            -31 15 -26 26 35 vvcurveto
            28 21 23 32 vhcurveto
            32 -1 18 -25 -28 vvcurveto
            -31 return
          </CharString>
          <CharString index="194">
            rmoveto
            431 147 -431 hlineto
            return
          </CharString>
          <CharString index="195">
            86 callgsubr
            -94 100 94 hlineto
            282 hmoveto
            169 return
          </CharString>
          <CharString index="196">
            710 1303 hmoveto
            -6 callsubr
            -1390 -169 605 -49 vlineto
            -45 -12 -32 -30 -19 vhcurveto
            42 -47 -70 24 -99 175 callgsubr
            return
          </CharString>
          <CharString index="197">
            214 -106 callgsubr
            return
          </CharString>
          <CharString index="198">
            158 80 95 146 hvcurveto
            78 callgsubr
          </CharString>
          <CharString index="199">
            -26 callgsubr
            42 return
          </CharString>
          <CharString index="200">
            65 callgsubr
            -3 hlineto
            162 callsubr
            return
          </CharString>
          <CharString index="201">
            167 callsubr
            107 20 return
          </CharString>
          <CharString index="202">
            rmoveto
            -128 hlineto
            64 197 rlineto
            endchar
          </CharString>
          <CharString index="203">
            vlineto
            85 -37 -83 46 -101 hhcurveto
            -130 -106 -73 -137 -6 hvcurveto
            192 hlineto
            30 9 26 7 17 hhcurveto
            36 20 -29 -36 -38 -20 -29 -36 -17 -26 7 31 -9 hvcurveto
            -192 hlineto
            -137 6 106 -72 130 hhcurveto
            117 93 61 113 24 hvcurveto
            return
          </CharString>
          <CharString index="204">
            -191 272 231 123 callgsubr
            return
          </CharString>
          <CharString index="205">
            -22 callgsubr
            80 callgsubr
            return
          </CharString>
          <CharString index="206">
            -134 vlineto
            -36 callgsubr
            return
          </CharString>
          <CharString index="207">
            4 32 376 rmoveto
            -220 88 -152 212 211 89 152 220 219 -89 152 -211 -212 -88 -152 -219 vhcurveto
            381 hmoveto
            -92 -9 -70 -72 -73 -9 70 92 91 9 70 73 72 9 -70 -91 vhcurveto
            endchar
          </CharString>
          <CharString index="208">
            -78 callgsubr
            endchar
          </CharString>
          <CharString index="209">
            -50 callsubr
            77 169 return
          </CharString>
          <CharString index="210">
            -366 696 rmoveto
            61 callsubr
            23 vlineto
            165 -109 126 -310 -296 -117 -120 -171 vhcurveto
            -67 vlineto
            return
          </CharString>
          <CharString index="211">
            -169 198 36 callsubr
            return
          </CharString>
          <CharString index="212">
            200 callsubr
            vlineto
            269 callgsubr
            -58 -76 vvcurveto
            -148 104 -89 151 136 103 74 133 8 vhcurveto
            -195 hlineto
            -27 -6 -21 -13 -25 hhcurveto
            -27 -29 18 49 47 29 20 return
          </CharString>
          <CharString index="213">
            -169 474 -117 hlineto
            35 -37 -50 21 -68 hhcurveto
            -163 -88 -119 -164 hvcurveto
            204 hlineto
            64 36 48 73 39 30 -17 -27 16 vhcurveto
            -385 -287 rlineto
            -8 261 vlineto
            132 110 rlineto
            -110 vlineto
            endchar
          </CharString>
          <CharString index="214">
            rmoveto
            32 24 24 34 32 24 -24 -32 -33 -24 -23 -32 275 callsubr
          </CharString>
          <CharString index="215">
            -123 15 callgsubr
            return
          </CharString>
          <CharString index="216">
            252 rmoveto
            -32 -23 148 callgsubr
            return
          </CharString>
          <CharString index="217">
            -72 696 rmoveto
            69 callgsubr
            25 vlineto
            163 -64 125 -204 -200 -72 -119 -169 vhcurveto
            -69 vlineto
            return
          </CharString>
          <CharString index="218">
            rmoveto
            -6 callsubr
            -283 -740 vlineto
            endchar
          </CharString>
          <CharString index="219">
            177 vlineto
            -1 return
          </CharString>
          <CharString index="220">
            104 164 169 -960 -169 599 -82 vlineto
            -42 -12 -42 -26 -33 -52 rrcurveto
            178 callsubr
            return
          </CharString>
          <CharString index="221">
            rmoveto
            -27 -22 15 33 33 27 16 36 163 callgsubr
            -26 -37 vhcurveto
            return
          </CharString>
          <CharString index="222">
            -134 6 callgsubr
            80 95 146 return
          </CharString>
          <CharString index="223">
            -38 callgsubr
            -203 hlineto
            -121 79 -98 148 129 74 77 119 5 0 8 -1 12 vhcurveto
            -176 -14 hlineto
            -17 -8 -17 -22 -22 -8 18 18 vhcurveto
            79 return
          </CharString>
          <CharString index="224">
            -31 vlineto
            -43 -6 -41 -37 -23 vhcurveto
            35 -44 -61 21 -80 hhcurveto
            return
          </CharString>
          <CharString index="225">
            -169 395 -110 hlineto
            137 callsubr
            return
          </CharString>
          <CharString index="226">
            107 callgsubr
            -729 -169 136 -31 vlineto
            -66 -15 108 callgsubr
            -91 81 -128 return
          </CharString>
          <CharString index="227">
            -540 rmoveto
            -122 78 -59 102 103 76 59 122 122 -76 59 -103 -102 -78 -59 -122 vhcurveto
            179 52 rmoveto
            22 14 -18 -34 -35 -14 -17 -22 -23 -12 17 35 34 12 18 23 hvcurveto
            return
          </CharString>
          <CharString index="228">
            198 callgsubr
            -648 -43 20 callgsubr
            return
          </CharString>
          <CharString index="229">
            -1 -10 -1 -10 -10 vvcurveto
            -9 1 -13 2 -13 vhcurveto
            183 hlineto
            -2 9 -2 9 12 vvcurveto
            27 15 13 return
          </CharString>
          <CharString index="230">
            46 129 callgsubr
            hlineto
            return
          </CharString>
          <CharString index="231">
            822 rmoveto
            45 31 35 46 60 25 -46 -42 -2 vhcurveto
            136 hlineto
            131 13 -78 84 -126 hhcurveto
            -108 -54 -61 -67 -18 hvcurveto
            -72 94 -64 16 -119 1 rrcurveto
            -56 -163 59 hlineto
            return
          </CharString>
          <CharString index="232">
            -52 -37 -28 -59 -68 vvcurveto
            -109 69 -97 129 52 46 16 33 32 vhcurveto
            -105 187 114 callgsubr
            202 230 hlineto
            return
          </CharString>
          <CharString index="233">
            14 20 17 14 -11 -22 -5 0 -3 -1 -10 hvcurveto
            149 hlineto
            1 10 1 21 14 vvcurveto
            102 -66 74 -123 -24 -22 -3 -6 -21 vhcurveto
            -716 -169 586 -5 hlineto
            -95 60 -53 return
          </CharString>
          <CharString index="234">
            -89 callsubr
            29 17 return
          </CharString>
          <CharString index="235">
            106 -67 103 45 38 12 23 25 return
          </CharString>
          <CharString index="236">
            -169 214 -48 return
          </CharString>
          <CharString index="237">
            rrcurveto
            137 callgsubr
          </CharString>
          <CharString index="238">
            -44 hlineto
            -18 -12 7 16 14 13 8 18 hvcurveto
            190 187 hlineto
            return
          </CharString>
          <CharString index="239">
            134 callgsubr
            -42 -25 27 36 37 27 27 41 40 26 -25 -37 1 hvcurveto
            -38 -29 -27 -39 vhcurveto
            return
          </CharString>
          <CharString index="240">
            280 225 rmoveto
            -29 -22 16 28 31 26 17 34 hvcurveto
            45 -32 hlineto
            -33 -14 -27 -40 vhcurveto
            return
          </CharString>
          <CharString index="241">
            242 279 rmoveto
            216 callsubr
            -49 -30 34 42 vhcurveto
            return
          </CharString>
          <CharString index="242">
            4 callsubr
            -31 vhcurveto
            1 hlineto
            -132 2 77 -105 142 hhcurveto
            4 callgsubr
          </CharString>
          <CharString index="243">
            -80 -278 vlineto
            147 callgsubr
          </CharString>
          <CharString index="244">
            -94 callsubr
            -31 vhcurveto
            return
          </CharString>
          <CharString index="245">
            129 callsubr
            vlineto
            -75 -33 -42 -97 vhcurveto
            -19 -109 hlineto
            return
          </CharString>
          <CharString index="246">
            30 -31 -44 -44 -30 -33 return
          </CharString>
          <CharString index="247">
            -63 -91 142 callgsubr
            return
          </CharString>
          <CharString index="248">
            -82 vlineto
            24 -39 -48 11 -53 hhcurveto
            return
          </CharString>
          <CharString index="249">
            -169 291 -45 -44 vlineto
            -105 -79 -53 -104 -153 137 -19 71 hvcurveto
            -65 callsubr
            return
          </CharString>
          <CharString index="250">
            149 callsubr
            endchar
          </CharString>
          <CharString index="251">
            -86 145 158 return
          </CharString>
          <CharString index="252">
            70 hmoveto
            222 379 83 185 -81 hlineto
            7 36 23 10 51 -6 rrcurveto
            189 vlineto
            -191 17 -112 -86 -2 -160 rrcurveto
            -60 -185 60 hlineto
            return
          </CharString>
          <CharString index="253">
            116 callgsubr
            -144 -77 -103 -130 -135 77 -108 144 4 callgsubr
          </CharString>
          <CharString index="254">
            54 47 18 36 33 vhcurveto
            -95 200 571 75 169 return
          </CharString>
          <CharString index="255">
            hhcurveto
            -175 -91 257 callsubr
            94 -108 180 return
          </CharString>
          <CharString index="256">
            143 hlineto
            -2 4 -1 5 5 vvcurveto
            12 9 12 16 16 10 -11 -17 -45 -46 -18 -58 -105 -37 60 70 88 69 48 89 vhcurveto
            130 179 hlineto
            return
          </CharString>
          <CharString index="257">
            -113 -66 297 callgsubr
            return
          </CharString>
          <CharString index="258">
            rmoveto
            -72 -40 39 44 -5 hvcurveto
            return
          </CharString>
          <CharString index="259">
            -132 -55 -43 -19 return
          </CharString>
          <CharString index="260">
            -61 -28 47 57 hvcurveto
            48 vlineto
            179 -101 rlineto
            -30 -15 -30 -21 -45 hhcurveto
            101 171 rmoveto
            -188 109 rlineto
            188 hlineto
            277 hmoveto
            169 return
          </CharString>
          <CharString index="261">
            -16 callgsubr
            165 73 59 30 44 40 vhcurveto
            -45 40 61 -29 86 hhcurveto
            162 78 101 133 hvcurveto
            217 return
          </CharString>
          <CharString index="262">
            rmoveto
            -31 -17 23 44 hvcurveto
            6 vlineto
            84 -60 98 199 callgsubr
            680 -90 -268 -156 vlineto
            -44 -14 -23 -32 vhcurveto
            return
          </CharString>
          <CharString index="263">
            hhcurveto
            203 callsubr
            hvcurveto
            57 vlineto
            endchar
          </CharString>
          <CharString index="264">
            vlineto
            -57 -33 -15 -31 vhcurveto
            -39 -177 69 hlineto
            41 19 -26 -32 -33 -20 -21 -32 -34 -21 24 35 hvcurveto
            -194 hlineto
            -154 106 -86 153 return
          </CharString>
          <CharString index="265">
            264 hlineto
            -260 369 244 339 rlineto
            -251 hlineto
            -203 -298 rlineto
            298 -222 -708 222 307 vlineto
            endchar
          </CharString>
          <CharString index="266">
            rmoveto
            33 192 callgsubr
            32 vhcurveto
            return
          </CharString>
          <CharString index="267">
            -62 35 64 -41 88 hhcurveto
            65 callsubr
            return
          </CharString>
          <CharString index="268">
            43 32 11 19 22 hvcurveto
            -125 return
          </CharString>
          <CharString index="269">
            57 -32 276 callgsubr
            return
          </CharString>
          <CharString index="270">
            rmoveto
            -40 -23 17 20 -10 hvcurveto
            70 18 36 51 56 vvcurveto
            95 -71 68 -161 vhcurveto
            -336 50 641 -260 hlineto
            -81 -53 -34 -53 vhcurveto
            return
          </CharString>
          <CharString index="271">
            131 callsubr
            endchar
          </CharString>
          <CharString index="272">
            -86 -31 -51 -68 -2 vhcurveto
            -42 -1 -31 18 151 callgsubr
            return
          </CharString>
          <CharString index="273">
            219 callsubr
            vlineto
            return
          </CharString>
          <CharString index="274">
            -40 194 callgsubr
            return
          </CharString>
          <CharString index="275">
            245 vlineto
            62 return
          </CharString>
          <CharString index="276">
            705 503 rmoveto
            -54 -43 -17 -31 -28 hvcurveto
            116 404 -100 -44 vlineto
            -39 -37 -6 -12 -33 hvcurveto
            31 -28 -41 19 -57 hhcurveto
            return
          </CharString>
          <CharString index="277">
            -173 hlineto
            -55 -27 -47 -78 -32 -23 13 26 24 17 16 33 vhcurveto
            51 163 -35 hlineto
            -46 -14 24 34 hvcurveto
            19 vlineto
            endchar
          </CharString>
          <CharString index="278">
            -336 258 callgsubr
            return
          </CharString>
          <CharString index="279">
            -19 -24 -10 -30 -35 vvcurveto
            return
          </CharString>
          <CharString index="280">
            -169 303 return
          </CharString>
          <CharString index="281">
            -95 callgsubr
            vlineto
            return
          </CharString>
          <CharString index="282">
            -146 18 731 rmoveto
            -190 258 vlineto
            -230 -541 rlineto
            228 hlineto
            228 568 rlineto
            163 vlineto
            endchar
          </CharString>
          <CharString index="283">
            rmoveto
            -51 vlineto
            -52 -15 -47 -26 -34 -40 -219 131 rcurveline
            1 vlineto
            return
          </CharString>
          <CharString index="284">
            -169 335 return
          </CharString>
          <CharString index="285">
            36 callgsubr
            6 hlineto
            return
          </CharString>
          <CharString index="286">
            rmoveto
            -46 -1 -27 31 37 vvcurveto
            37 23 29 45 5 vhcurveto
            31 4 26 11 20 18 rrcurveto
            -101 vlineto
            -41 -29 -28 -43 -1 vhcurveto
            return
          </CharString>
          <CharString index="287">
            -21 callsubr
            95 -571 -27 callgsubr
          </CharString>
          <CharString index="288">
            251 133 120 179 return
          </CharString>
          <CharString index="289">
            -44 -15 -23 -31 return
          </CharString>
          <CharString index="290">
            -658 -68 735 rmoveto
            -130 243 -57 33 -170 265 callgsubr
            return
          </CharString>
          <CharString index="291">
            190 callgsubr
            -29 return
          </CharString>
          <CharString index="292">
            239 callsubr
            -73 -172 -12 callgsubr
            hvcurveto
            return
          </CharString>
          <CharString index="293">
            53 vlineto
            98 65 -55 -103 -103 -65 -55 -98 hvcurveto
            return
          </CharString>
          <CharString index="294">
            hhcurveto
            -134 -92 -76 -130 -38 8 return
          </CharString>
          <CharString index="295">
            131 rmoveto
            -192 87 -11 vlineto
            -52 -21 -8 -34 vhcurveto
            -78 vlineto
            132 48 91 96 56 -16 57 -25 41 hvcurveto
            return
          </CharString>
          <CharString index="296">
            270 812 rmoveto
            52 30 37 50 50 24 -31 -29 3 vhcurveto
            163 hlineto
            122 14 -79 95 -131 hhcurveto
            return
          </CharString>
          <CharString index="297">
            -127 98 -82 143 153 81 100 137 hvcurveto
            endchar
          </CharString>
          <CharString index="298">
            147 -72 11 vlineto
            52 20 23 35 vhcurveto
            78 vlineto
            -114 -51 -80 -96 -42 8 -46 18 -47 hvcurveto
            endchar
          </CharString>
          <CharString index="299">
            -169 317 -53 vlineto
            -169 -10 -95 -103 -140 vvcurveto
            return
          </CharString>
          <CharString index="300">
            41 17 -31 -31 return
          </CharString>
          <CharString index="301">
            189 rmoveto
            -114 -31 30 40 28 20 23 38 hvcurveto
            15 162 -19 hlineto
            -36 -11 25 33 hvcurveto
            41 return
          </CharString>
          <CharString index="302">
            rmoveto
            -146 72 -12 vlineto
            -51 -20 -23 -35 vhcurveto
            -79 vlineto
            114 51 80 97 42 -8 46 -18 46 hvcurveto
            return
          </CharString>
          <CharString index="303">
            -69 -34 46 56 -2 hvcurveto
            92 21 59 79 126 vvcurveto
            77 302 -94 vlineto
            20 -23 -32 12 -43 hhcurveto
            return
          </CharString>
          <CharString index="304">
            -129 rmoveto
            -46 -28 31 39 38 27 33 51 24 23 1 3 21 hvcurveto
            -74 vlineto
            -42 -29 -29 -43 vhcurveto
            return
          </CharString>
          <CharString index="305">
            151 callsubr
            97 21 43 80 85 vvcurveto
            71 110 -197 vlineto
            -80 -42 -63 -91 vhcurveto
            return
          </CharString>
          <CharString index="306">
            rmoveto
            -27 -22 16 33 32 27 17 36 hvcurveto
            return
          </CharString>
          <CharString index="307">
            -169 292 -40 -48 return
          </CharString>
          <CharString index="308">
            98 callgsubr
            98 -61 return
          </CharString>
          <CharString index="309">
            166 hlineto
            -6 21 -4 24 22 vvcurveto
            32 11 24 25 25 9 -29 -29 -93 -64 -43 -140 vhcurveto
            return
          </CharString>
          <CharString index="310">
            181 callsubr
            97 -43 71 -74 31 return
          </CharString>
          <CharString index="311">
            -31 vlineto
            -44 -15 -39 -114 vhcurveto
            return
          </CharString>
          <CharString index="312">
            -147 117 -79 121 return
          </CharString>
          <CharString index="313">
            hhcurveto
            -54 295 callsubr
            return
          </CharString>
          <CharString index="314">
            vhcurveto
            399 -221 return
          </CharString>
          <CharString index="315">
            280 -79 callsubr
            return
          </CharString>
          <CharString index="316">
            429 307 rmoveto
            -48 -22 37 46 hvcurveto
            181 144 -181 vlineto
            -45 -23 -38 -51 vhcurveto
            return
          </CharString>
          <CharString index="317">
            23 -20 27 36 vvcurveto
            367 -573 rmoveto
            187 -6 callsubr
            -271 -395 hlineto
            return
          </CharString>
          <CharString index="318">
            20 250 rmoveto
            466 183 -466 hlineto
            endchar
          </CharString>
          <CharString index="319">
            -34 -19 15 28 28 25 14 26 hvcurveto
            11 158 -13 hlineto
            -27 -28 11 29 29 27 11 return
          </CharString>
          <CharString index="320">
            vvcurveto
            -147 116 -79 122 115 288 callsubr
            return
          </CharString>
          <CharString index="321">
            rmoveto
            -133 11 callsubr
            51 250 -33 vlineto
            -54 -14 -49 -114 vhcurveto
            return
          </CharString>
          <CharString index="322">
            -118 -295 287 callgsubr
            44 295 rlineto
            return
          </CharString>
          <CharString index="323">
            42 30 34 49 47 139 callsubr
            -47 return
          </CharString>
          <CharString index="324">
            130 hlineto
            -2 4 -1 4 4 vvcurveto
            return
          </CharString>
          <CharString index="325">
            -571 230 callsubr
            return
          </CharString>
          <CharString index="326">
            -95 232 callgsubr
            return
          </CharString>
          <CharString index="327">
            -34 -24 24 33 vhcurveto
            return
          </CharString>
          <CharString index="328">
            vvcurveto
            205 callsubr
            116 104 63 135 286 callgsubr
            return
          </CharString>
          <CharString index="329">
            rmoveto
            -39 callgsubr
            -38 -9 28 26 vhcurveto
            return
          </CharString>
          <CharString index="330">
            rmoveto
            157 vlineto
            -5 -18 -34 -9 -37 hhcurveto
            -41 -36 12 38 30 19 21 39 hvcurveto
            55 return
          </CharString>
          <CharString index="331">
            rmoveto
            35 24 -23 -35 -35 -24 -23 -35 -35 -24 23 35 35 24 23 35 hvcurveto
            endchar
          </CharString>
          <CharString index="332">
            44 32 35 51 48 33 -32 -46 -46 -33 -33 -48 -51 -32 34 44 vhcurveto
            359 return
          </CharString>
          <CharString index="333">
            101 rmoveto
            -33 callgsubr
            return
          </CharString>
          <CharString index="334">
            218 hlineto
            113 157 rlineto
            -111 vlineto
            return
          </CharString>
          <CharString index="335">
            212 hlineto
            373 711 rlineto
            -212 hlineto
            return
          </CharString>
          <CharString index="336">
            rmoveto
            164 352 -230 -127 66 hlineto
            return
          </CharString>
          <CharString index="337">
            204 -6 callsubr
            return
          </CharString>
          <CharString index="338">
            168 callsubr
            25 33 44 return
          </CharString>
          <CharString index="339">
            28 26 vhcurveto
            45 return
          </CharString>
          <CharString index="340">
            943 168 callgsubr
            459 -110 hlineto
            -56 callgsubr
            return
          </CharString>
          <CharString index="341">
            212 251 573 rmoveto
            29 22 26 32 33 22 -26 -30 -36 -23 -27 return
          </CharString>
          <CharString index="342">
            94 callgsubr
            46 return
          </CharString>
          <CharString index="343">
            hhcurveto
            -30 -28 -2 -5 -26 hvcurveto
            -16 4 -8 12 13 vvcurveto
            19 15 8 19 vhcurveto
            return
          </CharString>
          <CharString index="344">
            hlineto
            10 30 6 33 37 vvcurveto
            120 -54 72 -70 33 vhcurveto
            75 vlineto
            endchar
          </CharString>
          <CharString index="345">
            -42 -47 7 36 225 callgsubr
            return
          </CharString>
          <CharString index="346">
            -150 -134 return
          </CharString>
          <CharString index="347">
            18 36 34 23 19 30 34 17 -25 -28 1 hvcurveto
            -33 -21 -21 -31 vhcurveto
            return
          </CharString>
          <CharString index="348">
            154 -217 vlineto
            -64 -46 -38 -59 vhcurveto
            385 319 -79 callsubr
            return
          </CharString>
          <CharString index="349">
            -167 hlineto
            -51 -25 -42 -54 -57 -25 42 52 vhcurveto
            170 vlineto
            endchar
          </CharString>
          <CharString index="350">
            1 -305 rlineto
            -145 89 -102 173 return
          </CharString>
          <CharString index="351">
            58 50 15 31 32 return
          </CharString>
          <CharString index="352">
            55 47 18 36 33 return
          </CharString>
          <CharString index="353">
            -179 204 return
          </CharString>
          <CharString index="354">
            hhcurveto
            115 104 39 callsubr
            return
          </CharString>
          <CharString index="355">
            -149 115 callsubr
            hvcurveto
            28 return
          </CharString>
          <CharString index="356">
            -169 vlineto
            endchar
          </CharString>
          <CharString index="357">
            -104 -126 rlineto
            227 callsubr
            return
          </CharString>
          <CharString index="358">
            19 31 34 16 -25 -28 1 hvcurveto
            -33 -21 -21 -30 vhcurveto
            endchar
          </CharString>
          <CharString index="359">
            -222 -564 222 vlineto
            return
          </CharString>
          <CharString index="360">
            137 -53 116 -172 return
          </CharString>
          <CharString index="361">
            vlineto
            285 callsubr
            return
          </CharString>
          <CharString index="362">
            177 callsubr
            -61 -15 return
          </CharString>
          <CharString index="363">
            -105 -56 -56 -73 -45 19 return
          </CharString>
          <CharString index="364">
            -103 -130 -135 return
          </CharString>
          <CharString index="365">
            122 -91 36 -140 -38 -17 4 17 15 13 5 21 return
          </CharString>
          <CharString index="366">
            284 callgsubr
            vvcurveto
            -171 99 -111 175 return
          </CharString>
          <CharString index="367">
            580 hmoveto
            267 vlineto
            46 21 27 38 193 callsubr
            return
          </CharString>
          <CharString index="368">
            -96 -33 54 62 80 62 43 81 vhcurveto
            119 162 hlineto
            return
          </CharString>
          <CharString index="369">
            -169 343 -37 -7 vlineto
            -153 -113 -88 -151 return
          </CharString>
          <CharString index="370">
            -107 268 callgsubr
            return
          </CharString>
          <CharString index="371">
            750 -68 callsubr
            return
          </CharString>
          <CharString index="372">
            hlineto
            283 callgsubr
            return
          </CharString>
          <CharString index="373">
            571 132 218 callsubr
            return
          </CharString>
          <CharString index="374">
            hhcurveto
            116 103 63 135 -33 callsubr
            hvcurveto
            return
          </CharString>
          <CharString index="375">
            -174 -23 hlineto
            -29 -21 -12 -29 vhcurveto
            -124 112 return
          </CharString>
          <CharString index="376">
            vvcurveto
            115 -88 79 -145 -143 -86 -83 -109 return
          </CharString>
          <CharString index="377">
            87 vvcurveto
            69 -73 callsubr
            -91 vhcurveto
            return
          </CharString>
          <CharString index="378">
            rmoveto
            140 hlineto
            103 297 rlineto
            -196 hlineto
            endchar
          </CharString>
          <CharString index="379">
            -196 vlineto
            -80 -42 -63 -91 vhcurveto
            return
          </CharString>
          <CharString index="380">
            -23 -24 -33 -34 -24 24 32 vhcurveto
            return
          </CharString>
          <CharString index="381">
            rmoveto
            -51 257 callgsubr
            return
          </CharString>
          <CharString index="382">
            -12 callsubr
            endchar
          </CharString>
          <CharString index="383">
            35 28 16 28 return
          </CharString>
          <CharString index="384">
            -80 -278 vlineto
            return
          </CharString>
          <CharString index="385">
            571 vlineto
            endchar
          </CharString>
          <CharString index="386">
            167 118 99 147 36 -7 33 -13 30 return
          </CharString>
          <CharString index="387">
            -152 125 -51 114 40 41 5 13 42 return
          </CharString>
          <CharString index="388">
            -133 97 -86 144 159 79 95 146 return
          </CharString>
          <CharString index="389">
            144 callsubr
            79 95 146 vhcurveto
            28 95 return
          </CharString>
          <CharString index="390">
            302 callgsubr
            endchar
          </CharString>
          <CharString index="391">
            -106 vlineto
            34 -33 -47 18 return
          </CharString>
          <CharString index="392">
            -1 -8 0 -9 -9 vvcurveto
            return
          </CharString>
          <CharString index="393">
            1 169 rlineto
            return
          </CharString>
          <CharString index="394">
            564 -222 return
          </CharString>
          <CharString index="395">
            104 63 135 286 callgsubr
            91 return
          </CharString>
          <CharString index="396">
            -145 102 -104 142 244 callsubr
            return
          </CharString>
          <CharString index="397">
            -115 -91 -57 -125 -39 6 -32 6 -19 return
          </CharString>
          <CharString index="398">
            207 hlineto
            128 -66 107 return
          </CharString>
          <CharString index="399">
            107 20 278 callgsubr
            69 return
          </CharString>
          <CharString index="400">
            129 -93 109 -188 return
          </CharString>
          <CharString index="401">
            263 296 callsubr
            return
          </CharString>
          <CharString index="402">
            -43 -19 -33 -28 hvcurveto
            return
          </CharString>
          <CharString index="403">
            rmoveto
            -95 100 95 hlineto
            return
          </CharString>
          <CharString index="404">
            vhcurveto
            166 hlineto
            return
          </CharString>
          <CharString index="405">
            347 291 rmoveto
            -64 -29 42 62 hvcurveto
            return
          </CharString>
          <CharString index="406">
            270 hmoveto
            -6 callsubr
            -88 vlineto
            return
          </CharString>
          <CharString index="407">
            -5 hlineto
            77 callgsubr
            return
          </CharString>
          <CharString index="408">
            -4 -12 1 1 -9 vhcurveto
            -177 vlineto
            -1 return
          </CharString>
          <CharString index="409">
            191 175 hlineto
            endchar
          </CharString>
          <CharString index="410">
            -83 -121 vlineto
            return
          </CharString>
        <CharString name=".notdef">
          -158 0 vmoveto
          500 700 -500 hlineto
          250 -305 rmoveto
          -170 255 rlineto
          340 hlineto
          -140 -300 rmoveto
          170 255 rlineto
          -510 vlineto
          -370 -45 rmoveto
          170 255 170 -255 rlineto
          -370 555 rmoveto
          170 -255 -170 -255 rlineto
          endchar
        </CharString>
        <CharString name="A">
          -52 callsubr
          -54 167 95 callsubr
        </CharString>
        <CharString name="AE">
          328 490 537 117 callgsubr
        </CharString>
        <CharString name="Aacute">
          -52 callsubr
          -248 790 -68 callsubr
          -65 -733 95 callsubr
        </CharString>
        <CharString name="Abreve">
          -52 callsubr
          71 843 -80 callgsubr
          -125 -676 95 callsubr
        </CharString>
        <CharString name="Acircumflex">
          -52 callsubr
          48 786 -60 callgsubr
          -102 -475 95 callsubr
        </CharString>
        <CharString name="Adieresis">
          -52 callsubr
          -231 660 rmoveto
          -102 callsubr
          225 hmoveto
          -102 callsubr
          -48 -493 95 callsubr
        </CharString>
        <CharString name="Agrave">
          -52 callsubr
          -248 736 -24 callsubr
          194 -733 95 callsubr
        </CharString>
        <CharString name="Amacron">
          -52 callsubr
          -332 662 87 callsubr
          278 -642 95 callsubr
        </CharString>
        <CharString name="Aogonek">
          115 259 708 rmoveto
          -259 -708 rlineto
          233 hlineto
          35 107 rlineto
          236 hlineto
          35 -107 rlineto
          -30 -30 -10 -31 -36 vvcurveto
          -80 60 -46 100 43 38 6 10 33 vhcurveto
          116 vlineto
          -11 -33 -27 -5 -22 hhcurveto
          -24 -13 9 16 16 12 20 63 27 hvcurveto
          44 19 -258 708 rlineto
          -65 -434 95 callsubr
        </CharString>
        <CharString name="Aring">
          -52 callsubr
          -117 718 rmoveto
          -26 -20 19 28 29 20 18 26 26 20 -18 -29 -28 -20 -19 -26 hvcurveto
          179 vmoveto
          -73 -59 -50 -82 -82 59 -50 73 73 59 50 82 82 -59 50 -73 hvcurveto
          63 -730 95 callsubr
        </CharString>
        <CharString name="Atilde">
          -52 callsubr
          -351 642 rmoveto
          -97 callgsubr
          297 -475 95 callsubr
        </CharString>
        <CharString name="B">
          26 432 227 rmoveto
          -35 -19 -14 -40 vhcurveto
          -101 100 101 hlineto
          40 19 -17 -34 hvcurveto
          -15 254 rmoveto
          -34 -19 -15 -40 vhcurveto
          -86 100 86 hlineto
          40 19 -16 -35 hvcurveto
          242 -287 rmoveto
          79 -48 69 -87 21 vhcurveto
          70 18 49 58 85 vvcurveto
          123 -91 61 -141 vhcurveto
          -361 -708 371 hlineto
          154 84 70 124 hvcurveto
          endchar
        </CharString>
        <CharString name="C">
          -43 callsubr
          endchar
        </CharString>
        <CharString name="CR">
          -488 endchar
        </CharString>
        <CharString name="Cacute">
          -43 callsubr
          216 542 -68 callsubr
          endchar
        </CharString>
        <CharString name="Ccaron">
          -43 callsubr
          347 525 -59 callsubr
        </CharString>
        <CharString name="Ccedilla">
          95 30 355 rmoveto
          -192 110 -140 183 -24 vhcurveto
          -133 85 vlineto
          -3 callsubr
          34 -5 vlineto
          151 23 101 105 25 146 rrcurveto
          -234 hlineto
          -47 -21 -42 -27 -50 hhcurveto
          -75 -46 61 94 94 46 61 75 50 42 -27 -47 21 hvcurveto
          234 hlineto
          167 -29 -127 112 -187 hhcurveto
          -217 -133 -149 -211 hvcurveto
          endchar
        </CharString>
        <CharString name="Cdotaccent">
          -43 callsubr
          345 412 rmoveto
          -102 callsubr
          endchar
        </CharString>
        <CharString name="D">
          85 345 708 rmoveto
          -295 -708 79 callsubr
          316 271 callgsubr
        </CharString>
        <CharString name="Dcaron">
          85 345 708 rmoveto
          -295 -708 79 callsubr
          316 186 callsubr
          34 682 -59 callsubr
        </CharString>
        <CharString name="Dcroat">
          88 callgsubr
        </CharString>
        <CharString name="E">
          -54 callsubr
          endchar
        </CharString>
        <CharString name="Eacute">
          -54 callsubr
          -371 366 -68 callsubr
          endchar
        </CharString>
        <CharString name="Ebreve">
          -54 callsubr
          -52 419 -80 callgsubr
          endchar
        </CharString>
        <CharString name="Ecaron">
          -54 callsubr
          -240 349 -59 callsubr
        </CharString>
        <CharString name="Ecircumflex">
          -54 callsubr
          -75 362 -60 callgsubr
          endchar
        </CharString>
        <CharString name="Edieresis">
          -54 callsubr
          -354 236 rmoveto
          -102 callsubr
          225 hmoveto
          -102 callsubr
          endchar
        </CharString>
        <CharString name="Edotaccent">
          -54 callsubr
          -242 236 rmoveto
          -102 callsubr
          endchar
        </CharString>
        <CharString name="Egrave">
          -54 callsubr
          -371 312 -24 callsubr
          endchar
        </CharString>
        <CharString name="Emacron">
          -54 callsubr
          -455 238 87 callsubr
          endchar
        </CharString>
        <CharString name="Eogonek">
          -102 522 708 rmoveto
          -472 -708 249 hlineto
          -39 -33 -12 -33 -37 -14 callgsubr
          rlineto
          177 -250 100 220 167 -220 87 250 vlineto
          endchar
        </CharString>
        <CharString name="Eth">
          88 callgsubr
        </CharString>
        <CharString name="Euro">
          132 67 355 rmoveto
          -4 0 -4 -4 vvcurveto
          -52 -99 66 hlineto
          -150 39 120 -99 177 hhcurveto
          187 127 112 167 29 hvcurveto
          -234 hlineto
          -47 -21 -42 -27 -50 hhcurveto
          -38 -31 16 28 -21 hvcurveto
          128 99 -159 hlineto
          4 0 4 4 6 0 5 5 vvcurveto
          159 100 -124 hlineto
          25 21 29 14 36 hhcurveto
          50 42 -27 -47 21 hvcurveto
          234 hlineto
          167 -29 -127 112 -187 hhcurveto
          -175 -120 -96 -148 -40 hvcurveto
          -67 -100 52 hlineto
          -5 0 -6 -5 vvcurveto
          endchar
        </CharString>
        <CharString name="F">
          -83 258 callgsubr
          267 200 167 -200 98 278 176 -500 hlineto
          endchar
        </CharString>
        <CharString name="G">
          94 388 715 -41 callsubr
          endchar
        </CharString>
        <CharString name="Gbreve">
          94 388 715 -41 callsubr
          177 235 -80 callgsubr
          endchar
        </CharString>
        <CharString name="Gdotaccent">
          94 388 715 -41 callsubr
          -13 52 rmoveto
          -102 callsubr
          endchar
        </CharString>
        <CharString name="H">
          97 483 hmoveto
          222 277 callgsubr
          -255 -211 255 -222 -708 222 276 211 hlineto
          endchar
        </CharString>
        <CharString name="I">
          77 callsubr
          endchar
        </CharString>
        <CharString name="Iacute">
          77 callsubr
          -19 189 -68 callsubr
          endchar
        </CharString>
        <CharString name="Icircumflex">
          77 callsubr
          277 185 -60 callgsubr
          endchar
        </CharString>
        <CharString name="Idieresis">
          77 callsubr
          -2 59 rmoveto
          -102 callsubr
          225 hmoveto
          -102 callsubr
          endchar
        </CharString>
        <CharString name="Idotaccent">
          77 callsubr
          110 59 rmoveto
          -102 callsubr
          endchar
        </CharString>
        <CharString name="Igrave">
          77 callsubr
          -19 135 -24 callsubr
          endchar
        </CharString>
        <CharString name="Imacron">
          77 callsubr
          -103 61 87 callsubr
          endchar
        </CharString>
        <CharString name="Iogonek">
          -336 272 -207 rmoveto
          38 callgsubr
          rlineto
          277 callgsubr
          -707 vlineto
          -39 -33 -13 -34 -37 vvcurveto
          -74 60 -46 101 42 38 6 10 33 vhcurveto
          endchar
        </CharString>
        <CharString name="Itilde">
          77 callsubr
          -122 41 rmoveto
          -97 callgsubr
          endchar
        </CharString>
        <CharString name="J">
          -68 323 251 rmoveto
          -46 -18 -12 -24 -29 -23 16 62 vhcurveto
          -219 hlineto
          -186 115 -92 166 156 97 85 173 vhcurveto
          457 -221 vlineto
          endchar
        </CharString>
        <CharString name="K">
          97 478 hmoveto
          158 callsubr
        </CharString>
        <CharString name="L">
          -152 50 708 rmoveto
          150 callgsubr
          endchar
        </CharString>
        <CharString name="Lacute">
          -152 50 708 rmoveto
          150 callgsubr
          -172 189 -68 callsubr
          endchar
        </CharString>
        <CharString name="Lcaron">
          -81 369 708 rmoveto
          54 callgsubr
          -475 hmoveto
          150 callgsubr
          endchar
        </CharString>
        <CharString name="Ldot">
          -152 50 708 rmoveto
          150 callgsubr
          -43 59 rmoveto
          -102 callsubr
          endchar
        </CharString>
        <CharString name="Lslash">
          -137 65 708 rmoveto
          -256 vlineto
          -55 -15 rlineto
          -196 vlineto
          55 15 rlineto
          -256 436 168 -214 149 vlineto
          75 21 rlineto
          196 vlineto
          -75 -21 rlineto
          195 vlineto
          endchar
        </CharString>
        <CharString name="M">
          293 258 callgsubr
          353 hlineto
          109 -353 rlineto
          190 hlineto
          109 353 rlineto
          -353 221 708 -271 vlineto
          -152 -425 -156 425 rlineto
          -272 hlineto
          endchar
        </CharString>
        <CharString name="N">
          121 507 708 26 callgsubr
          endchar
        </CharString>
        <CharString name="NULL">
          -658 endchar
        </CharString>
        <CharString name="Nacute">
          121 507 708 26 callgsubr
          -471 189 -68 callsubr
          endchar
        </CharString>
        <CharString name="Ncaron">
          121 507 708 26 callgsubr
          -340 172 -59 callsubr
        </CharString>
        <CharString name="Ntilde">
          121 507 708 26 callgsubr
          -574 41 rmoveto
          -97 callgsubr
          endchar
        </CharString>
        <CharString name="O">
          -92 callgsubr
          endchar
        </CharString>
        <CharString name="OE">
          391 1015 532 rmoveto
          176 -472 -37 vlineto
          33 -44 -62 16 -59 hhcurveto
          -202 -146 -151 -215 -215 146 -151 202 hvcurveto
          59 3 62 13 44 33 rrcurveto
          -37 472 177 -250 100 220 167 -220 88 vlineto
          -370 -17 rmoveto
          89 49 -63 -98 -98 -49 -63 -89 -91 -48 63 98 98 48 63 91 hvcurveto
          endchar
        </CharString>
        <CharString name="Oacute">
          -92 callgsubr
          8 540 -68 callsubr
          endchar
        </CharString>
        <CharString name="Ocircumflex">
          -92 callgsubr
          304 536 -60 callgsubr
          endchar
        </CharString>
        <CharString name="Odieresis">
          -92 callgsubr
          25 410 rmoveto
          -102 callsubr
          225 hmoveto
          -102 callsubr
          endchar
        </CharString>
        <CharString name="Ograve">
          -92 callgsubr
          8 486 -24 callsubr
          endchar
        </CharString>
        <CharString name="Ohungarumlaut">
          -92 callgsubr
          27 635 25 callgsubr
        </CharString>
        <CharString name="Omacron">
          -92 callgsubr
          -76 412 87 callsubr
          endchar
        </CharString>
        <CharString name="Oslash">
          130 757 357 rmoveto
          97 -33 83 -55 63 vhcurveto
          100 112 rlineto
          -115 hlineto
          -49 -55 rlineto
          40 -60 -72 23 -79 hhcurveto
          -201 -164 -150 -213 -97 34 -84 56 -63 hvcurveto
          -101 -112 rlineto
          116 hlineto
          50 55 rlineto
          -40 59 73 -23 78 hhcurveto
          200 163 151 213 hvcurveto
          -502 hmoveto
          96 48 62 91 27 23 -6 -10 19 vhcurveto
          -195 -218 rlineto
          -9 22 -4 25 29 vvcurveto
          139 -157 rmoveto
          -27 -22 5 10 -20 hvcurveto
          194 217 rlineto
          9 -21 4 -26 -28 vvcurveto
          -94 -49 -63 -89 vhcurveto
          endchar
        </CharString>
        <CharString name="Otilde">
          -92 callgsubr
          -95 392 rmoveto
          -97 callgsubr
          endchar
        </CharString>
        <CharString name="P">
          -9 272 400 233 callgsubr
          143 -91 100 -178 vhcurveto
          -310 -708 222 225 88 hlineto
          178 91 109 131 hvcurveto
          endchar
        </CharString>
        <CharString name="Q">
          130 256 357 rmoveto
          96 48 62 91 89 49 -62 -96 -94 -49 -63 -89 -91 -48 63 94 vhcurveto
          502 hmoveto
          213 -161 150 -202 -201 -164 -150 -213 -213 164 -151 201 18 18 1 3 17 vhcurveto
          68 -112 rlineto
          262 hlineto
          -144 194 rlineto
          76 65 48 97 116 vvcurveto
          endchar
        </CharString>
        <CharString name="R">
          14 callgsubr
          endchar
        </CharString>
        <CharString name="Racute">
          14 callgsubr
          -186 189 -68 callsubr
          endchar
        </CharString>
        <CharString name="Rcaron">
          14 callgsubr
          -55 172 -59 callsubr
        </CharString>
        <CharString name="S">
          -33 597 219 -57 callsubr
          -159 10 127 -75 162 hhcurveto
          171 99 96 130 hvcurveto
          endchar
        </CharString>
        <CharString name="Sacute">
          -33 597 219 -57 callsubr
          -159 10 127 -75 162 hhcurveto
          171 99 96 130 hvcurveto
          -415 678 -68 callsubr
          endchar
        </CharString>
        <CharString name="Scaron">
          -33 597 219 -57 callsubr
          -159 10 127 -75 162 hhcurveto
          171 99 96 130 hvcurveto
          -284 661 -59 callsubr
        </CharString>
        <CharString name="T">
          -42 10 532 176 callgsubr
          endchar
        </CharString>
        <CharString name="Tcaron">
          -42 10 532 176 callgsubr
          293 172 -59 callsubr
        </CharString>
        <CharString name="Thorn">
          -9 272 290 233 callgsubr
          137 -91 96 -178 vhcurveto
          -90 120 -220 -708 222 125 88 hlineto
          178 91 104 126 hvcurveto
          endchar
        </CharString>
        <CharString name="U">
          -84 callgsubr
          endchar
        </CharString>
        <CharString name="Uacute">
          -84 callgsubr
          183 189 -68 callsubr
          endchar
        </CharString>
        <CharString name="Ubreve">
          -84 callgsubr
          502 242 -80 callgsubr
          endchar
        </CharString>
        <CharString name="Ucircumflex">
          -84 callgsubr
          479 185 -60 callgsubr
          endchar
        </CharString>
        <CharString name="Udieresis">
          -84 callgsubr
          200 59 rmoveto
          -102 callsubr
          225 hmoveto
          -102 callsubr
          endchar
        </CharString>
        <CharString name="Ugrave">
          -84 callgsubr
          183 135 -24 callsubr
          endchar
        </CharString>
        <CharString name="Uhungarumlaut">
          -84 callgsubr
          202 284 25 callgsubr
        </CharString>
        <CharString name="Umacron">
          -84 callgsubr
          99 61 87 callsubr
          endchar
        </CharString>
        <CharString name="Uogonek">
          61 46 309 rmoveto
          -159 75 -100 115 -39 vhcurveto
          -47 -36 -14 -35 -40 -14 callgsubr
          -1 1 rlineto
          131 33 94 102 170 vvcurveto
          399 -221 -399 vlineto
          -61 -27 -45 -67 -67 -24 45 61 207 callsubr
          vlineto
          endchar
        </CharString>
        <CharString name="Uring">
          -84 callgsubr
          314 296 22 callgsubr
          endchar
        </CharString>
        <CharString name="Utilde">
          -84 callgsubr
          80 41 rmoveto
          -97 callgsubr
          endchar
        </CharString>
        <CharString name="V">
          105 382 221 rmoveto
          -146 487 rlineto
          -236 hlineto
          238 -708 rlineto
          287 hlineto
          238 708 rlineto
          -236 hlineto
          endchar
        </CharString>
        <CharString name="W">
          -32 callsubr
          endchar
        </CharString>
        <CharString name="Wacute">
          -32 callsubr
          391 186 -68 callsubr
          endchar
        </CharString>
        <CharString name="Wcircumflex">
          -32 callsubr
          686 182 -60 callgsubr
          endchar
        </CharString>
        <CharString name="Wdieresis">
          -32 callsubr
          407 56 rmoveto
          -102 callsubr
          225 hmoveto
          -102 callsubr
          endchar
        </CharString>
        <CharString name="Wgrave">
          -32 callsubr
          391 132 -24 callsubr
          endchar
        </CharString>
        <CharString name="X">
          106 501 hmoveto
          263 hlineto
          -248 350 229 358 rlineto
          -253 hlineto
          -104 -177 -125 177 rlineto
          -263 hlineto
          243 -343 -233 -365 rlineto
          253 hlineto
          108 184 rlineto
          endchar
        </CharString>
        <CharString name="Y">
          -18 callgsubr
          endchar
        </CharString>
        <CharString name="Yacute">
          -18 callgsubr
          235 189 -68 callsubr
          endchar
        </CharString>
        <CharString name="Ycircumflex">
          -18 callgsubr
          531 185 -60 callgsubr
          endchar
        </CharString>
        <CharString name="Ydieresis">
          -18 callgsubr
          252 59 rmoveto
          -102 callsubr
          225 hmoveto
          -102 callsubr
          endchar
        </CharString>
        <CharString name="Ygrave">
          -18 callgsubr
          235 135 -24 callsubr
          endchar
        </CharString>
        <CharString name="Z">
          43 callgsubr
          endchar
        </CharString>
        <CharString name="Zacute">
          43 callgsubr
          -396 356 -68 callsubr
          endchar
        </CharString>
        <CharString name="Zcaron">
          43 callgsubr
          -265 339 -59 callsubr
        </CharString>
        <CharString name="Zdotaccent">
          43 callgsubr
          -267 226 rmoveto
          -102 callsubr
          endchar
        </CharString>
        <CharString name="a">
          -91 callgsubr
          endchar
        </CharString>
        <CharString name="a.ss02">
          -15 372 hmoveto
          -100 callsubr
        </CharString>
        <CharString name="aacute">
          -91 callgsubr
          -193 468 -68 callsubr
          endchar
        </CharString>
        <CharString name="aacute.ss02">
          -15 216 264 callsubr
          -103 -860 rmoveto
          -100 callsubr
        </CharString>
        <CharString name="abreve">
          -91 callgsubr
          126 521 -80 callgsubr
          endchar
        </CharString>
        <CharString name="abreve.ss02">
          -15 535 803 -80 callgsubr
          -163 -803 rmoveto
          -100 callsubr
        </CharString>
        <CharString name="acircumflex">
          -91 callgsubr
          103 464 -60 callgsubr
          endchar
        </CharString>
        <CharString name="acircumflex.ss02">
          -15 512 746 -60 callgsubr
          -140 -602 rmoveto
          -100 callsubr
        </CharString>
        <CharString name="acute">
          -379 10 264 callsubr
          endchar
        </CharString>
        <CharString name="adieresis">
          -91 callgsubr
          -176 338 rmoveto
          -102 callsubr
          225 hmoveto
          -102 callsubr
          endchar
        </CharString>
        <CharString name="adieresis.ss02">
          -15 233 620 rmoveto
          -102 callsubr
          225 hmoveto
          -102 callsubr
          -86 -620 rmoveto
          -100 callsubr
        </CharString>
        <CharString name="ae">
          5 callsubr
          endchar
        </CharString>
        <CharString name="agrave">
          -91 callgsubr
          -193 414 -24 callsubr
          endchar
        </CharString>
        <CharString name="agrave.ss02">
          -15 216 696 -24 callsubr
          156 -860 rmoveto
          -100 callsubr
        </CharString>
        <CharString name="amacron">
          -91 callgsubr
          -277 340 87 callsubr
          endchar
        </CharString>
        <CharString name="amacron.ss02">
          -15 132 622 87 callsubr
          240 -769 rmoveto
          -100 callsubr
        </CharString>
        <CharString name="ampersand">
          173 598 524 rmoveto
          99 -77 98 -162 -158 -85 -91 -106 -41 13 -38 33 -41 vhcurveto
          -85 -46 -41 -72 -79 vvcurveto
          -129 107 -88 174 86 73 19 37 62 vhcurveto
          49 -46 rlineto
          244 hlineto
          -167 162 36 50 32 59 26 69 rlinecurve
          10 26 rlineto
          -215 hlineto
          -3 -9 -7 -22 -8 -20 -10 -19 rlinecurve
          -161 156 rlineto
          -28 27 -16 26 21 vvcurveto
          24 19 12 20 18 19 -11 -27 vhcurveto
          -63 -359 rmoveto
          -56 -29 29 33 20 11 22 23 17 hvcurveto
          118 -110 rlineto
          -7 -20 -23 -4 -24 hhcurveto
          endchar
        </CharString>
        <CharString name="ampersand.ss03">
          42 138 537 rmoveto
          -41 8 -36 21 -34 vhcurveto
          -83 -24 -59 -77 -107 vvcurveto
          -120 79 -105 160 77 58 26 37 40 vhcurveto
          40 -56 rlineto
          221 hlineto
          -334 468 rlineto
          -15 22 -6 10 12 vvcurveto
          12 8 8 12 16 7 -9 -18 3 vhcurveto
          2 -11 1 -14 -16 vvcurveto
          206 hlineto
          2 39 -4 43 -14 38 rrcurveto
          72 -28 -61 59 -134 hhcurveto
          -147 -76 -87 -91 hvcurveto
          76 -313 rmoveto
          28 21 18 31 31 21 -18 -28 -29 -21 -19 -31 -31 -21 19 29 vhcurveto
          endchar
        </CharString>
        <CharString name="aogonek">
          0 callsubr
          -75 vlineto
          -40 -34 -13 -33 -38 -14 callgsubr
          rlineto
          564 248 callgsubr
          hvcurveto
          389 hmoveto
          -62 -36 -33 -46 -46 -36 33 62 62 36 33 46 46 36 -33 -62 vhcurveto
          endchar
        </CharString>
        <CharString name="aogonek.ss02">
          -15 593 -207 rmoveto
          38 callgsubr
          rlineto
          332 vlineto
          144 -110 96 -170 -147 -110 -93 -125 -29 vhcurveto
          224 hlineto
          21 8 20 19 33 hhcurveto
          36 23 -24 -47 hvcurveto
          -97 hlineto
          -177 -77 -72 -100 -105 80 -57 97 72 76 31 56 27 hvcurveto
          -74 vlineto
          -40 -34 -13 -33 -38 vvcurveto
          -74 60 -46 101 42 38 6 10 33 vhcurveto
          -349 393 rmoveto
          28 23 19 41 vhcurveto
          62 -12 hlineto
          -41 -36 -37 -44 -28 -18 15 28 vhcurveto
          endchar
        </CharString>
        <CharString name="apostrophemod.ss01">
          -377 50 876 rmoveto
          54 callgsubr
          endchar
        </CharString>
        <CharString name="approxequal">
          53 20 70 rmoveto
          57 callgsubr
          275 vmoveto
          57 callgsubr
          endchar
        </CharString>
        <CharString name="aring">
          -91 callgsubr
          -62 575 22 callgsubr
          endchar
        </CharString>
        <CharString name="aring.ss02">
          -15 347 857 22 callgsubr
          25 -678 rmoveto
          -100 callsubr
        </CharString>
        <CharString name="asciicircum">
          100 513 162 rmoveto
          220 hlineto
          -244 549 rlineto
          -218 hlineto
          -246 -549 287 callgsubr
          135 298 rlineto
          endchar
        </CharString>
        <CharString name="asciitilde">
          53 20 181 rmoveto
          57 callgsubr
          endchar
        </CharString>
        <CharString name="asterisk">
          -97 356 744 rmoveto
          -142 hlineto
          31 -119 -92 83 -67 -121 109 -32 -111 -36 75 -129 85 87 -28 -117 rlineto
          139 hlineto
          -28 117 87 -86 73 127 -111 34 111 36 -67 121 -93 -84 rlineto
          endchar
        </CharString>
        <CharString name="at">
          471 778 -4 rmoveto
          180 95 142 177 220 -162 152 -246 -321 -248 -228 -323 -231 157 -150 240 86 80 16 30 68 hvcurveto
          -38 139 rlineto
          -21 -49 -64 -15 -73 hhcurveto
          -155 -92 98 150 213 169 176 221 162 102 -94 -138 -91 -24 -80 -57 -30 -6 25 38 7 hvcurveto
          39 221 rlineto
          -172 hlineto
          -10 -58 rlineto
          38 -13 -37 25 -56 hhcurveto
          -129 -89 -132 -142 -102 59 -58 96 70 57 28 52 34 hvcurveto
          -49 23 52 -28 74 hhcurveto
          -171 228 rmoveto
          -46 -34 -31 -32 -26 -17 18 30 47 32 32 34 25 18 -19 -31 vhcurveto
          endchar
        </CharString>
        <CharString name="atilde">
          -91 callgsubr
          -296 320 rmoveto
          -97 callgsubr
          endchar
        </CharString>
        <CharString name="atilde.ss02">
          -15 113 602 rmoveto
          -97 callgsubr
          259 -602 rmoveto
          -100 callsubr
        </CharString>
        <CharString name="b">
          22 272 487 rmoveto
          253 -222 -740 222 77 111 callgsubr
        </CharString>
        <CharString name="backslash">
          220 412 955 rmoveto
          -212 hlineto
          240 -1153 rlineto
          212 hlineto
          endchar
        </CharString>
        <CharString name="bar">
          -396 20 828 rmoveto
          -972 222 972 vlineto
          endchar
        </CharString>
        <CharString name="braceleft">
          -174 152 178 rmoveto
          -49 -25 -83 -70 vvcurveto
          -134 90 -73 137 vhcurveto
          76 177 -34 hlineto
          -44 -15 21 33 hvcurveto
          41 18 90 56 vvcurveto
          76 -34 54 -74 14 vhcurveto
          2 vlineto
          74 14 34 54 76 56 -18 90 41 vvcurveto
          33 15 21 44 vhcurveto
          34 177 -76 hlineto
          -137 -90 -73 -134 hvcurveto
          -70 25 -83 -49 vvcurveto
          -42 -22 -21 -70 vhcurveto
          -181 vlineto
          70 22 -26 -38 hvcurveto
          endchar
        </CharString>
        <CharString name="braceright">
          -174 332 178 rmoveto
          -49 25 -83 -70 vvcurveto
          -134 -90 -73 -137 vhcurveto
          -76 177 34 hlineto
          44 15 21 33 hvcurveto
          41 -18 90 56 vvcurveto
          76 34 54 74 14 vhcurveto
          2 vlineto
          -74 14 -34 54 76 56 18 90 41 vvcurveto
          33 -15 21 -44 vhcurveto
          -34 177 76 hlineto
          137 90 -73 -134 hvcurveto
          -70 -25 -83 -49 vvcurveto
          -42 22 -21 70 vhcurveto
          -181 vlineto
          -70 -22 -26 -38 hvcurveto
          endchar
        </CharString>
        <CharString name="bracketleft">
          -125 95 -229 rmoveto
          382 178 -174 768 174 178 -382 hlineto
          endchar
        </CharString>
        <CharString name="bracketright">
          -125 438 -229 rmoveto
          -382 178 174 768 -174 178 382 hlineto
          endchar
        </CharString>
        <CharString name="breve">
          -263 386 803 -80 callgsubr
          endchar
        </CharString>
        <CharString name="brokenbar">
          -226 105 287 rmoveto
          -431 222 431 vlineto
          111 vmoveto
          430 -222 -430 vlineto
          endchar
        </CharString>
        <CharString name="bullet">
          -122 268 166 rmoveto
          95 73 73 94 95 -73 74 -95 -94 -74 -74 -95 -94 74 -73 94 hvcurveto
          endchar
        </CharString>
        <CharString name="c">
          -40 callsubr
          endchar
        </CharString>
        <CharString name="cacute">
          -40 callsubr
          148 468 -68 callsubr
          endchar
        </CharString>
        <CharString name="caron">
          -307 176 733 -59 callsubr
        </CharString>
        <CharString name="ccaron">
          -40 callsubr
          279 451 -59 callsubr
        </CharString>
        <CharString name="ccedilla">
          -49 20 282 rmoveto
          -157 90 -103 135 -24 vhcurveto
          -132 85 vlineto
          -3 callsubr
          33 vlineto
          112 22 81 81 23 125 rrcurveto
          -235 hlineto
          -27 -8 -15 -17 -28 hhcurveto
          -34 -24 31 68 68 24 31 34 28 15 -17 -27 8 hvcurveto
          235 hlineto
          148 -27 -109 86 -145 hhcurveto
          -169 -119 -109 -180 hvcurveto
          endchar
        </CharString>
        <CharString name="cdotaccent">
          -40 callsubr
          277 338 rmoveto
          -102 callsubr
          endchar
        </CharString>
        <CharString name="cedilla">
          -315 203 7 rmoveto
          -128 -134 85 hlineto
          -3 callsubr
          endchar
        </CharString>
        <CharString name="cent">
          -79 559 205 rmoveto
          -203 hlineto
          -25 -6 -29 -10 -20 hhcurveto
          -46 -23 31 52 52 23 32 46 20 25 -8 -27 10 hvcurveto
          203 hlineto
          -8 131 -106 71 -119 9 rrcurveto
          76 -62 -76 vlineto
          -149 -13 -95 -89 -157 vvcurveto
          -159 95 -89 149 -13 vhcurveto
          -76 62 76 vlineto
          119 9 106 72 8 131 rrcurveto
          endchar
        </CharString>
        <CharString name="circumflex">
          -307 341 746 -60 callgsubr
          endchar
        </CharString>
        <CharString name="colon">
          -339 287 226 callsubr
          396 vmoveto
          157 callgsubr
        </CharString>
        <CharString name="colon.ss01">
          -326 62 275 callgsubr
          179 vmoveto
          118 callgsubr
          endchar
        </CharString>
        <CharString name="comma">
          -316 45 -120 271 callsubr
        </CharString>
        <CharString name="comma.ss01">
          -382 25 188 callsubr
          endchar
        </CharString>
        <CharString name="copyright">
          113 30 358 rmoveto
          -213 145 -151 211 211 144 151 213 213 -144 149 -211 -211 -145 -149 -213 vhcurveto
          642 hmoveto
          -180 -110 -119 -176 -177 -109 119 180 181 109 116 177 176 110 -116 -181 vhcurveto
          -70 40 rmoveto
          -184 hlineto
          17 -5 -10 18 -23 hhcurveto
          -28 -17 -24 -52 -52 17 -24 28 23 10 18 17 5 hvcurveto
          184 hlineto
          -111 -16 -89 -69 -107 hhcurveto
          -135 -91 85 136 136 91 85 135 107 89 -69 -111 16 hvcurveto
          endchar
        </CharString>
        <CharString name="currency">
          -55 362 377 rmoveto
          -42 -28 -15 -30 -30 -28 15 42 44 28 15 30 30 28 -15 -44 vhcurveto
          101 -239 rmoveto
          80 81 -49 49 rlineto
          24 30 14 37 44 vvcurveto
          45 -14 38 -26 29 vhcurveto
          51 50 -80 81 -72 -72 rlineto
          7 -26 -29 4 -32 hhcurveto
          -33 -31 -4 -8 -27 hvcurveto
          -73 73 -80 -81 53 -53 rlineto
          -24 -29 -13 -36 -44 vvcurveto
          -42 13 -37 23 -29 vhcurveto
          -52 -52 80 -81 69 69 rlineto
          -9 28 32 -5 35 hhcurveto
          33 31 4 9 27 hvcurveto
          endchar
        </CharString>
        <CharString name="d">
          22 20 282 rmoveto
          -182 103 -107 130 75 53 33 51 27 vhcurveto
          -77 255 callgsubr
          -253 75 callgsubr
        </CharString>
        <CharString name="dagger">
          59 447 549 rmoveto
          22 245 rlineto
          -222 hlineto
          21 -245 -217 15 rlineto
          -166 vlineto
          217 15 -21 -683 rlineto
          222 hlineto
          -22 683 219 -15 rlineto
          166 vlineto
          endchar
        </CharString>
        <CharString name="daggerdbl">
          58 666 564 rmoveto
          -219 -15 21 245 rlineto
          -222 hlineto
          22 -245 -218 15 rlineto
          -166 vlineto
          218 15 rlineto
          -302 vlineto
          -218 16 rlineto
          -167 vlineto
          218 15 -22 -245 rlineto
          222 hlineto
          -21 245 219 -15 rlineto
          167 vlineto
          -219 -16 rlineto
          302 vlineto
          219 -15 rlineto
          endchar
        </CharString>
        <CharString name="danda">
          -275 282 callgsubr
          endchar
        </CharString>
        <CharString name="dcaron">
          224 690 740 195 callsubr
          -826 -458 rmoveto
          -182 103 -107 130 75 53 33 51 27 vhcurveto
          -77 255 callgsubr
          -253 75 callgsubr
        </CharString>
        <CharString name="dcroat">
          46 20 282 rmoveto
          -182 103 -107 130 75 53 33 51 27 vhcurveto
          -77 222 592 64 96 -64 52 -222 -52 -59 -96 59 -105 75 callgsubr
        </CharString>
        <CharString name="degree">
          -162 23 533 rmoveto
          -114 95 -72 135 135 85 72 114 115 -89 67 -135 -136 -90 -67 -115 vhcurveto
          281 -2 rmoveto
          -49 -27 -18 -24 -26 -35 18 49 51 32 18 26 24 30 -18 -51 vhcurveto
          endchar
        </CharString>
        <CharString name="dieresis">
          -241 95 620 rmoveto
          -102 callsubr
          225 hmoveto
          -102 callsubr
          endchar
        </CharString>
        <CharString name="divide">
          279 callgsubr
          387 -340 rmoveto
          -33 callgsubr
          475 vmoveto
          157 callgsubr
        </CharString>
        <CharString name="divide.ss01">
          279 callgsubr
          144 -441 rmoveto
          118 callgsubr
          257 vmoveto
          118 callgsubr
          endchar
        </CharString>
        <CharString name="dollar">
          7 299 -87 rmoveto
          62 80 hlineto
          178 4 98 94 118 vvcurveto
          168 -167 33 -109 35 vhcurveto
          97 vlineto
          13 -8 9 -16 3 -27 rrcurveto
          239 hlineto
          -9 139 -98 78 -157 11 rrcurveto
          81 -62 -81 vlineto
          -146 -6 -123 -74 -135 vvcurveto
          -171 159 -34 110 -30 vhcurveto
          -98 vlineto
          -17 9 -12 17 -2 30 rrcurveto
          -236 hlineto
          9 -143 110 -75 148 -14 rrcurveto
          101 209 rmoveto
          -24 -16 -13 -23 -5 vhcurveto
          86 vlineto
          24 -11 15 -13 -20 vvcurveto
          -132 310 rmoveto
          20 11 12 20 4 vhcurveto
          -80 vlineto
          -19 11 -12 14 19 vvcurveto
          endchar
        </CharString>
        <CharString name="dotaccent">
          -466 95 620 rmoveto
          -102 callsubr
          endchar
        </CharString>
        <CharString name="dotlessi">
          110 callgsubr
          endchar
        </CharString>
        <CharString name="dottedcircle">
          -7 557 409 -31 callgsubr
          -376 -286 -31 callgsubr
          98 -76 -31 callgsubr
          -143 189 -31 callgsubr
          267 -203 -31 callgsubr
          -252 324 -31 callgsubr
          367 -278 -31 callgsubr
          -291 377 -31 callgsubr
          364 -281 -31 callgsubr
          -247 323 -31 callgsubr
          257 -203 -31 callgsubr
          -136 188 -31 callgsubr
          endchar
        </CharString>
        <CharString name="doubledanda">
          37 282 callgsubr
          109 hmoveto
          -740 203 740 vlineto
          endchar
        </CharString>
        <CharString name="dvA">
          189 210 493 rmoveto
          -163 49 vlineto
          -14 callsubr
          203 107 callgsubr
          -280 -58 callgsubr
          endchar
        </CharString>
        <CharString name="dvAA">
          523 210 493 rmoveto
          -163 49 vlineto
          -14 callsubr
          203 266 callsubr
          -615 -58 callgsubr
          endchar
        </CharString>
        <CharString name="dvAI">
          -5 332 19 rmoveto
          147 102 80 144 hvcurveto
          73 callsubr
          71 169 -83 91 callgsubr
          -402 -169 80 hlineto
          243 callsubr
          vhcurveto
          endchar
        </CharString>
        <CharString name="dvAU">
          236 callgsubr
          -89 vlineto
          335 -174 -25 16 -167 57 callsubr
          -348 -58 callgsubr
          -49 -163 49 hlineto
          -14 callsubr
          hlineto
          endchar
        </CharString>
        <CharString name="dvAbbreviationsign">
          -193 234 500 rmoveto
          -104 -73 -71 -101 -100 73 -71 104 103 71 71 100 101 -71 71 -103 hvcurveto
          -119 vmoveto
          30 22 -22 -31 -31 -22 -21 -30 -32 -24 21 31 31 24 22 32 hvcurveto
          endchar
        </CharString>
        <CharString name="dvAcandra">
          194 210 493 rmoveto
          -163 49 vlineto
          -14 callsubr
          203 107 callgsubr
          -280 -58 callgsubr
          689 554 18 callsubr
        </CharString>
        <CharString name="dvAnusvara">
          -658 -55 912 10 callgsubr
        </CharString>
        <CharString name="dvAnusvara.amI">
          -658 254 912 10 callgsubr
        </CharString>
        <CharString name="dvAvagraha">
          -48 336 37 rmoveto
          105 83 56 106 hvcurveto
          184 -205 44 56 vvcurveto
          16 13 2 11 vhcurveto
          191 171 -243 hlineto
          -107 -73 -55 -102 hvcurveto
          -181 205 -46 -58 vvcurveto
          -17 -12 -6 -22 vhcurveto
          -237 -170 hlineto
          endchar
        </CharString>
        <CharString name="dvB">
          -289 587 288 rmoveto
          128 -86 110 -186 -179 -94 -108 -130 -138 94 -112 179 185 87 113 137 vhcurveto
          -266 101 rmoveto
          -76 callgsubr
          271 182 -79 callsubr
          -603 -169 vlineto
          332 -395 -34 callgsubr
          endchar
        </CharString>
        <CharString name="dvBA">
          29 622 hmoveto
          -6 callsubr
          -709 -169 437 141 callsubr
          -142 -102 -98 -138 -145 102 -104 142 96 callgsubr
          endchar
        </CharString>
        <CharString name="dvBH">
          -99 7 callgsubr
          205 166 -205 8 callgsubr
        </CharString>
        <CharString name="dvBHA">
          232 7 callgsubr
          98 -305 161 callgsubr
          -269 -98 8 callgsubr
        </CharString>
        <CharString name="dvBH_LA">
          820 7 callgsubr
          81 vlineto
          -1 -13 -1 -14 -14 vvcurveto
          78 callsubr
          175 7 12 0 1 16 vhcurveto
          112 callsubr
          -9 -12 -85 callgsubr
          42 48 -15 callgsubr
          301 callsubr
          15 12 0 7 hhcurveto
          -61 callsubr
          -890 -169 530 -67 vlineto
          -52 -14 -35 -31 -22 -41 rrcurveto
          -4 hlineto
          57 -31 -55 37 -90 hhcurveto
          -50 -50 -13 -28 -42 hvcurveto
          -177 25 hlineto
          12 callsubr
        </CharString>
        <CharString name="dvBH_NA">
          744 7 callgsubr
          82 vlineto
          -2 -13 -1 -13 -14 213 callsubr
          -322 204 107 callgsubr
          -813 -169 532 -80 -278 hlineto
          -41 -40 -7 -13 -35 hvcurveto
          -217 25 hlineto
          -83 callsubr
          262 -11 107 callsubr
        </CharString>
        <CharString name="dvBH_R">
          -99 133 callsubr
          237 71 rmoveto
          21 208 vlineto
          -452 -416 287 callgsubr
          234 236 rlineto
          342 -210 17 vlineto
          69 callsubr
          -55 -46 vlineto
          -133 -113 -64 -147 190 callsubr
        </CharString>
        <CharString name="dvBH_RA">
          232 133 callsubr
          237 71 rmoveto
          21 132 -70 vlineto
          -376 -346 287 callgsubr
          167 168 rlineto
          -69 183 571 78 169 -272 -261 -132 17 vlineto
          69 callsubr
          -55 -46 vlineto
          -133 -113 -64 -147 190 callsubr
        </CharString>
        <CharString name="dvBH_R_YA">
          651 133 callsubr
          626 7 rmoveto
          -76 -40 41 47 -2 hvcurveto
          109 18 31 77 -68 callgsubr
          -389 64 rmoveto
          21 70 vlineto
          3 -39 8 -35 13 -31 -338 -311 rcurveline
          220 hlineto
          208 203 rlineto
          -27 43 53 -14 63 22 callsubr
          -129 25 hlineto
          69 callsubr
          -63 -46 vlineto
          -133 -113 -62 -141 190 callsubr
        </CharString>
        <CharString name="dvBH_VA">
          557 7 callgsubr
          75 216 callgsubr
          145 147 callsubr
          -627 -169 352 182 callgsubr
          -59 -48 -17 -29 -36 hvcurveto
          -153 25 hlineto
          -83 callsubr
          353 -74 rmoveto
          -49 -30 34 42 216 callsubr
          hvcurveto
          endchar
        </CharString>
        <CharString name="dvBH_YA">
          651 7 callgsubr
          67 vlineto
          -148 14 97 -94 161 22 callsubr
          -125 25 hlineto
          -83 callsubr
          385 -45 rmoveto
          -76 -40 41 47 -2 hvcurveto
          109 18 31 77 -68 callgsubr
          endchar
        </CharString>
        <CharString name="dvB_BA">
          417 321 389 rmoveto
          -76 callgsubr
          689 -389 rmoveto
          -6 callsubr
          -1097 -169 825 141 callsubr
          -66 -57 -21 -37 -43 hvcurveto
          37 -44 -64 23 -85 -40 callgsubr
          84 64 24 38 45 hvcurveto
          -39 43 57 -22 66 hhcurveto
          238 callgsubr
          -493 176 -34 callgsubr
          397 6 rmoveto
          -60 -51 41 65 8 1 8 2 8 hvcurveto
          168 -114 rlineto
          -10 -17 -20 -6 -23 hhcurveto
          213 vmoveto
          -29 callsubr
          endchar
        </CharString>
        <CharString name="dvB_BHA">
          619 667 208 114 callsubr
          241 69 rmoveto
          28 99 -305 204 107 callgsubr
          -281 -269 -99 25 vlineto
          137 -53 116 -175 -29 245 callgsubr
          -613 -169 606 0 76 hlineto
          2 5 5 3 7 hhcurveto
          22 8 -18 -24 hvcurveto
          -63 -43 vlineto
          -51 -49 -10 -21 -40 hvcurveto
          52 -44 -73 34 -103 -40 callgsubr
          79 61 21 34 44 hvcurveto
          -37 42 59 -20 71 hhcurveto
          158 79 95 146 hvcurveto
          -587 112 rmoveto
          -76 callgsubr
          -213 vmoveto
          -80 callsubr
          endchar
        </CharString>
        <CharString name="dvB_BH_RA">
          639 321 389 rmoveto
          -76 callgsubr
          -213 vmoveto
          -80 callsubr
          346 49 rmoveto
          -29 -21 16 28 31 25 17 34 hvcurveto
          45 -32 hlineto
          -33 -13 -27 -41 vhcurveto
          -2 346 rmoveto
          4 5 6 2 9 hhcurveto
          26 10 -18 -25 hvcurveto
          -55 -46 vlineto
          -54 -50 -11 -22 -41 hvcurveto
          49 -45 -71 31 -99 -40 callgsubr
          87 65 25 41 45 hvcurveto
          -29 41 54 -16 63 hhcurveto
          153 82 100 137 hvcurveto
          21 131 -70 vlineto
          -376 -346 287 callgsubr
          168 169 rlineto
          -70 183 107 callgsubr
          -272 -261 -131 17 vlineto
          253 callsubr
          -30 245 callgsubr
          -612 -169 hlineto
          endchar
        </CharString>
        <CharString name="dvB_DA">
          343 1011 253 callgsubr
          -1023 -169 723 -61 -15 hlineto
          -72 -61 -18 -34 -46 hvcurveto
          42 -45 -67 26 -91 -40 callgsubr
          80 61 21 35 44 hvcurveto
          -34 39 50 -16 50 154 callgsubr
          -596 -395 -36 callsubr
        </CharString>
        <CharString name="dvB_DHA">
          449 189 callgsubr
          811 397 rmoveto
          285 callgsubr
          vlineto
          -93 -53 -61 -91 -50 -27 15 28 225 callgsubr
          vhcurveto
          -90 callgsubr
          -24 -22 -3 -6 -21 vhcurveto
          -565 -169 435 300 callsubr
          -43 -12 -54 -36 -12 -68 rrcurveto
          -1 hlineto
          -1 -8 -1 -8 -3 -8 -173 118 rcurveline
          14 20 24 7 27 hhcurveto
          19 11 -1 -3 16 hvcurveto
          132 vlineto
          6 -24 -25 1 -19 hhcurveto
          -155 -107 -101 -145 -160 128 -84 142 77 66 25 49 45 hvcurveto
          -31 42 58 -16 63 hhcurveto
          89 65 25 46 43 hvcurveto
          -136 -27 callgsubr
        </CharString>
        <CharString name="dvB_DH_VA">
          821 189 callgsubr
          1088 397 rmoveto
          76 169 -603 -169 328 -106 hlineto
          -44 callgsubr
          -24 -22 -3 -6 -21 vhcurveto
          -565 -169 435 300 callsubr
          -43 -12 -54 -36 -12 -68 rrcurveto
          -1 hlineto
          -1 -8 -1 -8 -3 -8 -173 118 rcurveline
          14 20 24 7 27 hhcurveto
          19 11 -1 -3 16 hvcurveto
          132 vlineto
          6 -24 -25 1 -19 hhcurveto
          -155 -107 -101 -145 -160 128 -84 142 77 66 25 49 45 hvcurveto
          -34 46 66 -15 77 hhcurveto
          102 62 33 48 39 hvcurveto
          136 callgsubr
        </CharString>
        <CharString name="dvB_JA">
          570 321 176 -34 callgsubr
          918 395 -79 callsubr
          -1250 -169 970 -90 -267 -156 vlineto
          40 callsubr
          148 78 94 134 4 hvcurveto
          68 -308 63 callgsubr
          -842 -182 rmoveto
          59 callgsubr
        </CharString>
        <CharString name="dvB_JHA">
          721 321 176 rmoveto
          -59 -52 41 65 8 1 8 1 8 hvcurveto
          169 -115 rlineto
          -10 -18 -20 -5 -22 hhcurveto
          366 163 rmoveto
          -21 -10 8 14 15 12 8 19 hvcurveto
          253 187 173 -232 hlineto
          201 -339 rmoveto
          -6 callsubr
          -1401 -169 755 -43 -103 162 callgsubr
          hvcurveto
          -22 vlineto
          -34 -7 -31 -13 -25 vhcurveto
          -179 123 rlineto
          12 19 23 6 26 hhcurveto
          27 21 -3 -7 21 hvcurveto
          135 vlineto
          6 -25 -26 3 -29 -40 callgsubr
          132 81 73 102 32 hvcurveto
          22 -8 23 -5 22 -1 rrcurveto
          -2 33 76 0 47 hhcurveto
          39 14 -15 -21 -20 -13 -13 -26 -24 -19 12 28 -1 hvcurveto
          -173 -257 183 94 hlineto
          -13 21 36 -12 44 hhcurveto
          100 59 63 89 20 -2 18 -4 17 hvcurveto
          96 -187 hlineto
          endchar
        </CharString>
        <CharString name="dvB_J_YA">
          1023 1278 232 rmoveto
          -69 -40 36 43 -7 hvcurveto
          96 26 42 80 85 vvcurveto
          69 111 272 callsubr
          -957 157 rmoveto
          -76 callgsubr
          -213 vmoveto
          -80 callsubr
          1371 395 -79 callsubr
          -1703 -169 1110 -31 vlineto
          -51 -14 -48 -114 vhcurveto
          -279 -116 hlineto
          40 callsubr
          135 76 78 115 16 hvcurveto
          80 hlineto
          -130 29 92 -80 230 callgsubr
          19 callgsubr
        </CharString>
        <CharString name="dvB_JxA">
          570 1239 -63 callsubr
          -1250 -169 970 -90 -267 -156 vlineto
          40 callsubr
          148 78 94 134 4 hvcurveto
          68 -308 63 callgsubr
          -404 71 callgsubr
          -438 253 -36 callsubr
        </CharString>
        <CharString name="dvB_LA">
          623 967 5 rmoveto
          175 97 108 151 107 -45 68 -61 38 hvcurveto
          94 159 169 -1303 -169 943 -67 vlineto
          -52 -14 -35 -31 -22 -41 rrcurveto
          52 callsubr
          41 23 -28 -44 -54 -34 -26 -40 301 callsubr
          15 12 0 7 hhcurveto
          -646 171 -36 callsubr
        </CharString>
        <CharString name="dvB_L_YA">
          1088 321 176 -34 callgsubr
          1436 395 -79 callsubr
          -1768 -169 1175 -32 vlineto
          -34 -4 -33 -20 -24 vhcurveto
          44 -39 -54 20 -54 hhcurveto
          -86 -54 -37 -57 -30 hvcurveto
          52 callsubr
          36 17 -22 -23 6 vhcurveto
          -138 20 95 -87 156 -71 callgsubr
          -337 -339 rmoveto
          -72 -39 194 callgsubr
          107 19 278 callgsubr
          70 -87 callsubr
          -1022 157 rmoveto
          59 callgsubr
        </CharString>
        <CharString name="dvB_NA">
          574 612 109 callgsubr
          -1254 -169 973 277 callsubr
          -59 -55 -13 -28 -45 hvcurveto
          46 -44 -70 30 -96 -40 callgsubr
          82 62 22 36 44 hvcurveto
          -37 45 59 -20 60 hhcurveto
          -21 callgsubr
          -845 -395 21 callgsubr
          62 44 -42 -60 3 hvcurveto
          -1 -6 0 -7 -7 vvcurveto
          -4 -1 -3 -1 -3 vhcurveto
          -167 115 rlineto
          11 18 20 6 23 hhcurveto
          endchar
        </CharString>
        <CharString name="dvB_R">
          -289 592 -63 callsubr
          -603 -169 vlineto
          598 -283 rmoveto
          128 -86 110 -186 -179 -94 -108 -130 -130 83 -106 158 -13 vhcurveto
          -88 -107 rlineto
          202 hlineto
          149 207 -3 -1 rlineto
          30 42 14 52 56 vvcurveto
          -266 101 rmoveto
          -76 callgsubr
          -213 vmoveto
          -80 callsubr
          endchar
        </CharString>
        <CharString name="dvB_RA">
          28 426 hmoveto
          196 571 75 169 -708 -169 437 -82 hlineto
          24 -39 -48 11 -53 hhcurveto
          -142 -102 -98 -138 -113 67 -86 100 -29 hvcurveto
          -106 -128 rlineto
          212 hlineto
          111 154 rlineto
          -96 309 -2 callsubr
        </CharString>
        <CharString name="dvB_SA">
          556 321 389 rmoveto
          -76 callgsubr
          -213 vmoveto
          -80 callsubr
          500 344 3 callsubr
          -1236 -169 628 -51 vlineto
          -47 -13 -39 -54 -15 vhcurveto
          64 -41 -78 43 -116 -40 callgsubr
          70 56 16 28 43 hvcurveto
          -55 35 62 -36 86 hhcurveto
          142 82 235 callgsubr
          -9 18 19 vhcurveto
          68 312 -269 -27 callgsubr
        </CharString>
        <CharString name="dvB_SHA">
          601 923 213 rmoveto
          2 0 7 -1 11 vhcurveto
          -199 -17 hlineto
          -27 -14 -21 -28 -37 -9 232 callsubr
          7 vlineto
          158 132 74 176 150 -99 82 -143 -28 -26 -3 -6 -23 hvcurveto
          -624 -169 688 hlineto
          2 4 3 0 5 hhcurveto
          25 11 -20 -23 -79 -84 -14 -76 hvcurveto
          -28 hlineto
          54 -44 -73 35 -105 -40 callgsubr
          74 58 18 30 43 hvcurveto
          -59 40 68 -33 88 hhcurveto
          145 92 79 140 hvcurveto
          -602 176 rmoveto
          -76 callgsubr
          -213 vmoveto
          -80 callsubr
          873 -176 111 callsubr
        </CharString>
        <CharString name="dvB_TA">
          445 1115 -63 callsubr
          -1126 -169 845 303 callsubr
          -67 -63 -14 -32 -50 hvcurveto
          51 -44 -72 33 -102 -40 callgsubr
          69 56 16 27 42 hvcurveto
          -57 49 77 -23 81 hhcurveto
          10 callsubr
          111 -314 63 callgsubr
          -717 -395 -36 callsubr
        </CharString>
        <CharString name="dvB_VA">
          392 1061 740 rmoveto
          -1072 -169 797 75 callsubr
          -60 -49 -18 -31 -36 hvcurveto
          36 -45 -63 22 -83 -40 callgsubr
          81 62 22 35 44 hvcurveto
          -34 37 50 -20 62 hhcurveto
          11 callgsubr
          vlineto
          -352 -368 -79 callgsubr
          -388 186 rmoveto
          -76 callgsubr
          -213 vmoveto
          -80 callsubr
          endchar
        </CharString>
        <CharString name="dvB_YA">
          469 746 232 rmoveto
          -61 -35 24 33 -17 hvcurveto
          105 30 31 110 73 vvcurveto
          69 111 87 callgsubr
          -1171 -169 578 -31 vlineto
          -39 -5 -37 -28 -24 vhcurveto
          52 -44 -72 34 -103 -40 callgsubr
          95 70 30 48 44 hvcurveto
          -34 45 60 -19 72 -50 callsubr
          vlineto
          -763 -395 -36 callsubr
        </CharString>
        <CharString name="dvC">
          -224 425 344 rmoveto
          129 callgsubr
          vlineto
          172 callsubr
          -125 99 -60 144 193 105 117 192 -1 vhcurveto
          -177 hlineto
          165 callsubr
          293 227 -79 callsubr
          -683 249 callsubr
        </CharString>
        <CharString name="dvCA">
          107 776 -63 callsubr
          -787 -169 506 -192 vlineto
          -86 -31 -51 -68 -2 vhcurveto
          -42 -1 -31 18 26 callsubr
          -115 86 -68 114 68 57 21 41 38 vhcurveto
          -134 -27 callgsubr
        </CharString>
        <CharString name="dvCH">
          97 callgsubr
          -153 146 -70 204 181 callsubr
          82 callgsubr
        </CharString>
        <CharString name="dvCHA">
          97 callgsubr
          -153 146 -70 204 203 callsubr
          vhcurveto
          57 vlineto
          -265 -382 -74 callgsubr
          endchar
        </CharString>
        <CharString name="dvCH_R">
          81 callsubr
          82 callgsubr
        </CharString>
        <CharString name="dvCH_RA">
          81 callsubr
          97 -43 71 -74 31 vhcurveto
          57 vlineto
          -265 -382 -74 callgsubr
          endchar
        </CharString>
        <CharString name="dvCH_R_YA">
          2 callgsubr
          -107 71 -66 112 -30 vhcurveto
          -97 -131 rlineto
          64 callsubr
          -102 136 60 20 47 31 34 41 rlinecurve
          215 callgsubr
        </CharString>
        <CharString name="dvCH_YA">
          2 callgsubr
          -153 146 -70 204 147 105 43 74 61 vhcurveto
          215 callgsubr
        </CharString>
        <CharString name="dvC_CA">
          451 392 240 rmoveto
          -40 -29 17 36 276 callsubr
          hvcurveto
          125 hlineto
          -10 -13 -8 -15 -5 -16 rrcurveto
          -37 -16 -33 -23 -40 hhcurveto
          727 331 -79 callsubr
          -1130 -169 849 202 callgsubr
          -717 -159 110 hlineto
          172 callsubr
          -125 89 -60 130 71 54 23 44 40 vhcurveto
          -42 36 57 -23 66 hhcurveto
          68 57 21 41 38 hvcurveto
          -134 -27 callgsubr
        </CharString>
        <CharString name="dvC_CHA">
          589 825 189 -2 callgsubr
          rrcurveto
          -70 57 113 -33 140 156 callsubr
        </CharString>
        <CharString name="dvC_CH_VA">
          589 827 -137 rmoveto
          -47 -28 34 42 41 27 36 51 hvcurveto
          0 vlineto
          20 25 1 3 24 hvcurveto
          -86 vlineto
          -41 -29 -30 -43 vhcurveto
          -2 326 -2 callgsubr
          25 -30 36 -24 43 -17 rrcurveto
          -36 -36 -19 -51 -54 vvcurveto
          -105 74 -94 137 51 44 16 34 31 vhcurveto
          -97 181 417 vlineto
          84 52 43 83 102 vvcurveto
          97 -43 71 -74 31 vhcurveto
          57 vlineto
          endchar
        </CharString>
        <CharString name="dvC_MA">
          666 1053 471 rmoveto
          -94 100 94 hlineto
          -336 -363 -94 callgsubr
          618 363 -79 callsubr
          -1346 -169 780 -100 -44 vlineto
          -113 -99 -48 -108 -26 hvcurveto
          -1 hlineto
          -47 -13 -31 -28 -51 hhcurveto
          -39 -29 18 35 276 callsubr
          hvcurveto
          123 callsubr
          172 callsubr
          -121 97 -64 134 65 54 18 33 41 vhcurveto
          -54 41 70 -31 87 61 callgsubr
        </CharString>
        <CharString name="dvC_NA">
          648 664 109 callgsubr
          -1306 -169 1025 277 callsubr
          -121 292 callgsubr
          -12 -45 -30 -25 -48 -1 rrcurveto
          -41 -1 -31 17 26 callsubr
          -122 104 -63 138 62 53 19 34 40 vhcurveto
          -55 45 72 -29 73 hhcurveto
          -17 callsubr
        </CharString>
        <CharString name="dvC_R">
          -224 672 -63 callsubr
          -683 -169 vlineto
          436 -227 rmoveto
          129 callgsubr
          vlineto
          172 callsubr
          -113 81 -60 122 -10 vhcurveto
          -97 -118 rlineto
          218 hlineto
          155 216 4 5 3 4 4 5 rlinecurve
          1 vlineto
          0 vlineto
          33 50 17 66 78 vvcurveto
          -177 hlineto
          165 callsubr
          endchar
        </CharString>
        <CharString name="dvC_RA">
          107 776 -63 callsubr
          -787 -169 506 -192 vlineto
          -86 -31 -51 -68 -2 vhcurveto
          -42 -1 -31 18 26 callsubr
          -83 50 -57 74 -23 vhcurveto
          -114 -138 rlineto
          218 hlineto
          129 181 2 2 2 2 2 1 rlinecurve
          -140 -27 callgsubr
        </CharString>
        <CharString name="dvC_YA">
          559 814 232 rmoveto
          -78 callsubr
          -1239 -169 646 288 callgsubr
          -17 -2 -16 -1 -17 -5 -78 -31 -44 -63 -2 rrcurveto
          -41 -1 -31 18 26 callsubr
          -125 98 -60 144 81 63 26 48 43 vhcurveto
          -52 47 70 -29 91 -75 callgsubr
        </CharString>
        <CharString name="dvCandrabindu">
          -658 84 24 callsubr
        </CharString>
        <CharString name="dvD">
          -46 698 -325 -47 callgsubr
          132 896 18 callgsubr
          endchar
        </CharString>
        <CharString name="dvDA">
          -45 623 571 18 callgsubr
          endchar
        </CharString>
        <CharString name="dvDA_mvR">
          -47 587 197 rmoveto
          -170 hlineto
          -45 -24 -33 -60 -40 -18 12 20 15 9 14 37 vhcurveto
          33 148 -23 hlineto
          -35 -26 3 26 25 26 3 34 hvcurveto
          196 186 106 169 -643 -169 343 -46 -89 hlineto
          -99 -80 -43 -101 -65 46 -48 58 -15 hvcurveto
          -4 vlineto
          -69 -16 -34 -47 -57 vvcurveto
          -112 115 -49 139 166 101 79 150 1 vhcurveto
          endchar
        </CharString>
        <CharString name="dvDD">
          -98 535 -305 -47 callgsubr
          243 876 -79 callsubr
          -582 -169 291 -64 callgsubr
          190 187 hlineto
          endchar
        </CharString>
        <CharString name="dvDDA">
          -98 571 -63 callsubr
          -582 -169 291 -64 callgsubr
          190 187 hlineto
          endchar
        </CharString>
        <CharString name="dvDDH">
          6 588 -300 -47 callgsubr
          294 871 -79 callsubr
          -686 -169 347 -69 callgsubr
          130 179 hlineto
          endchar
        </CharString>
        <CharString name="dvDDHA">
          6 675 -63 callsubr
          -686 -169 347 -69 callgsubr
          130 179 hlineto
          endchar
        </CharString>
        <CharString name="dvDDH_DDHA">
          21 690 -63 callsubr
          -701 262 callsubr
          -85 37 -66 62 -43 hvcurveto
          -62 -39 -37 -64 -84 vvcurveto
          -161 139 -86 170 179 92 69 120 91 -70 64 -113 -98 -65 -44 -82 -11 2 -14 3 -14 vhcurveto
          217 callsubr
          11 9 11 16 18 9 -11 -15 -40 -46 -15 -59 -96 -33 54 62 80 62 43 81 vhcurveto
          0 vlineto
          147 106 69 120 91 -64 64 -117 -99 -66 -43 -83 -11 2 -14 3 -14 hvcurveto
          217 callsubr
          11 8 11 18 17 9 -11 -16 -39 -46 -15 -59 261 callsubr
          endchar
        </CharString>
        <CharString name="dvDDH_R">
          6 595 -406 -47 callgsubr
          287 977 24 callgsubr
        </CharString>
        <CharString name="dvDDH_RA">
          6 675 571 24 callgsubr
        </CharString>
        <CharString name="dvDDH_VA">
          11 680 -63 callsubr
          -691 262 callsubr
          -90 36 -68 57 -43 hvcurveto
          -49 -35 -28 -56 -64 vvcurveto
          -112 75 -91 139 52 44 18 33 31 vhcurveto
          -135 170 453 vlineto
          34 31 18 41 50 vvcurveto
          91 -64 64 -116 -99 -66 -43 -83 -11 2 -14 3 -14 vhcurveto
          217 callsubr
          11 8 11 17 17 9 -11 -16 -39 -46 -15 -58 261 callsubr
          -164 -680 rmoveto
          -47 -28 32 39 57 50 19 50 17 17 1 1 16 hvcurveto
          -75 vlineto
          -41 -28 -33 -47 vhcurveto
          endchar
        </CharString>
        <CharString name="dvDDH_YA">
          698 1291 hmoveto
          -6 callsubr
          -1378 -169 347 -69 callgsubr
          371 hlineto
          26 28 -12 -33 -27 -25 -13 -29 hvcurveto
          -56 -19 hlineto
          -180 118 -63 113 69 47 22 33 32 vhcurveto
          -100 vlineto
          -105 196 rmoveto
          -41 -23 17 20 -10 hvcurveto
          63 16 43 41 71 vvcurveto
          98 -62 65 -169 vhcurveto
          -260 47 564 -261 hlineto
          -80 -53 -34 -52 vhcurveto
          endchar
        </CharString>
        <CharString name="dvDDHxA">
          6 675 -63 callsubr
          -686 -169 347 -69 callgsubr
          130 179 hlineto
          -53 -746 -28 callgsubr
        </CharString>
        <CharString name="dvDD_DDA">
          -87 582 -63 callsubr
          -593 -169 304 184 callgsubr
          -193 hlineto
          -45 25 -36 38 -24 vhcurveto
          -31 -21 -18 -31 -40 vvcurveto
          -103 88 -37 136 31 39 0 -36 -23 -19 -13 -33 -31 -29 13 29 -3 vhcurveto
          -193 hlineto
          -114 7 111 -58 140 hhcurveto
          151 90 59 109 124 -94 34 -145 -36 -22 1 20 14 12 6 25 164 96 59 108 258 callsubr
          hvcurveto
          302 callsubr
        </CharString>
        <CharString name="dvDD_DDHA">
          -79 581 -63 callsubr
          -591 173 callsubr
          184 callgsubr
          -194 hlineto
          -48 28 -36 42 -24 vhcurveto
          -62 -36 -37 -62 -85 vvcurveto
          -165 139 -82 166 172 88 71 118 91 -70 64 -112 -99 -64 -44 -82 -10 2 -15 3 -14 vhcurveto
          217 callsubr
          12 9 10 15 18 9 -11 -15 -40 -46 -15 -58 -96 -33 51 58 74 56 40 76 10 vhcurveto
          149 19 78 48 101 vvcurveto
          258 callsubr
          vhcurveto
          302 callsubr
        </CharString>
        <CharString name="dvDD_R">
          -98 537 -411 -47 callgsubr
          241 982 30 callsubr
        </CharString>
        <CharString name="dvDD_RA">
          -98 571 571 30 callsubr
        </CharString>
        <CharString name="dvDD_VA">
          -77 281 -142 rmoveto
          -37 -30 27 43 54 35 29 54 15 15 1 1 14 hvcurveto
          -97 vlineto
          -33 -27 -25 -39 vhcurveto
          311 713 -79 callsubr
          -603 -169 304 -44 -52 vlineto
          -105 -78 -49 -96 -143 136 -17 73 46 39 -2 -38 -25 -19 -13 -33 -31 -27 15 23 -5 hvcurveto
          -194 hlineto
          -48 28 -44 48 -31 vhcurveto
          -50 -32 -28 -56 -65 vvcurveto
          -110 75 -79 115 47 40 13 26 29 vhcurveto
          -104 170 439 vlineto
          17 25 9 30 35 vvcurveto
          111 -78 45 -121 8 vhcurveto
          -53 4 -34 -9 31 vvcurveto
          19 16 6 18 vhcurveto
          302 callsubr
        </CharString>
        <CharString name="dvDD_YA">
          573 1166 hmoveto
          -6 callsubr
          -1253 -169 291 -64 callgsubr
          363 hlineto
          21 26 -11 -28 -26 -23 -12 -25 hvcurveto
          -62 -19 hlineto
          -180 118 -63 113 69 47 22 34 32 vhcurveto
          -101 vlineto
          -105 196 rmoveto
          -41 -22 17 20 -11 hvcurveto
          71 17 35 51 59 vvcurveto
          94 -62 67 -169 vhcurveto
          -185 50 489 -260 hlineto
          -81 -53 -34 -52 vhcurveto
          endchar
        </CharString>
        <CharString name="dvDDxA">
          -98 571 -63 callsubr
          -582 -169 291 -64 callgsubr
          190 187 hlineto
          -60 -752 -28 callgsubr
        </CharString>
        <CharString name="dvDH">
          58 callgsubr
          -132 120 -56 156 201 129 104 159 vhcurveto
          endchar
        </CharString>
        <CharString name="dvDHA">
          86 765 571 rmoveto
          285 callgsubr
          vlineto
          -93 -53 -61 -91 -50 -27 15 28 -35 callsubr
          -123 106 -63 125 89 65 25 46 43 vhcurveto
          -136 -27 callgsubr
        </CharString>
        <CharString name="dvDH_MA">
          667 487 313 rmoveto
          0 vlineto
          -4 -15 rlineto
          -42 -13 -38 -25 -75 -44 callsubr
          110 -56 147 87 72 17 34 52 vhcurveto
          -50 42 68 -28 83 hhcurveto
          158 79 95 146 hvcurveto
          28 95 -305 205 107 callgsubr
          -821 -169 255 -100 -44 vlineto
          -114 -99 -49 -109 -26 hvcurveto
          231 -105 86 callgsubr
          -95 100 95 hlineto
          endchar
        </CharString>
        <CharString name="dvDH_NA">
          627 1296 570 rmoveto
          170 -781 -170 501 -79 -279 vlineto
          -120 292 callgsubr
          -1 -3 rlineto
          -51 -14 -40 -27 -75 -44 callsubr
          120 -56 137 88 68 26 50 45 vhcurveto
          -66 44 77 -34 81 267 callsubr
          92 -322 204 570 hlineto
          -554 -304 107 callsubr
        </CharString>
        <CharString name="dvDH_N_YA">
          1068 1737 -63 callsubr
          -1246 -169 653 204 callsubr
          -283 hlineto
          -113 -101 -49 -107 -31 hvcurveto
          -45 -19 -38 -25 -73 -44 callsubr
          120 -56 137 78 63 20 40 44 vhcurveto
          -77 41 85 -41 87 267 callsubr
          94 hlineto
          -139 28 93 -86 143 -50 callsubr
          vlineto
          -999 -339 115 callgsubr
          662 hmoveto
          -60 -39 36 47 -16 hvcurveto
          95 29 42 77 81 -5 callgsubr
          endchar
        </CharString>
        <CharString name="dvDH_R">
          58 callgsubr
          -131 119 -56 155 -1 vhcurveto
          -115 -138 rlineto
          218 hlineto
          178 248 rlineto
          33 42 18 52 59 vvcurveto
          endchar
        </CharString>
        <CharString name="dvDH_RA">
          86 489 hmoveto
          -76 callsubr
          72 285 callgsubr
          hlineto
          -93 -53 -61 -91 -50 -27 15 28 -35 callsubr
          -104 79 -59 102 -15 vhcurveto
          -123 -148 rlineto
          218 hlineto
          152 211 rlineto
          endchar
        </CharString>
        <CharString name="dvDH_VA">
          447 1042 571 rmoveto
          76 169 -603 -169 328 -106 hlineto
          34 -33 -47 18 -55 hhcurveto
          -127 -75 -80 -108 -16 hvcurveto
          -1 -5 rlineto
          -61 -14 -52 -32 -66 -44 callsubr
          110 -56 147 102 62 33 48 39 vhcurveto
          136 callgsubr
        </CharString>
        <CharString name="dvDH_YA">
          552 1221 -63 callsubr
          -706 -169 113 -31 vlineto
          -66 -15 -60 -113 vhcurveto
          -8 284 callgsubr
          vvcurveto
          -66 -38 -48 -92 79 callgsubr
          -132 120 -56 156 92 74 30 52 51 vhcurveto
          -52 46 71 -30 91 -71 callgsubr
          -337 -339 rmoveto
          -71 -41 194 callgsubr
          246 callgsubr
          -68 callgsubr
          endchar
        </CharString>
        <CharString name="dvD_BA">
          146 callgsubr
          -114 77 -101 141 58 49 21 44 32 vhcurveto
          49 callsubr
        </CharString>
        <CharString name="dvD_BHA">
          834 698 -325 -47 callgsubr
          132 896 18 callgsubr
          353 -363 rmoveto
          -27 -22 15 33 33 26 16 37 hvcurveto
          37 -39 hlineto
          -32 -14 -26 -37 vhcurveto
          241 69 rmoveto
          28 98 -305 204 571 78 169 -282 -269 -98 8 callgsubr
        </CharString>
        <CharString name="dvD_B_RA">
          146 callgsubr
          -86 44 -79 82 -33 vhcurveto
          -98 -116 rlineto
          208 hlineto
          118 160 1 1 1 1 1 2 rlinecurve
          49 callsubr
        </CharString>
        <CharString name="dvD_DA">
          -70 545 -108 rmoveto
          271 -169 vlineto
          -24 -16 -24 -45 -40 -13 18 16 17 11 12 30 vhcurveto
          39 143 -35 hlineto
          -30 -20 9 21 24 22 6 29 hvcurveto
          161 190 130 169 -611 -169 281 -56 hlineto
          -7 -8 0 -7 hhcurveto
          -103 -93 -35 -106 -65 44 -46 59 -14 hvcurveto
          -4 vlineto
          -65 -16 -37 -50 -61 vvcurveto
          -111 99 -42 79 57 37 17 22 23 vhcurveto
          -112 vlineto
          endchar
        </CharString>
        <CharString name="dvD_DHA">
          274 943 -63 callsubr
          -954 -169 646 -61 -16 vlineto
          -156 -111 -87 -152 -70 20 -51 31 -37 hvcurveto
          -67 -10 -34 -41 -52 hhcurveto
          212 callsubr
          41 hvcurveto
          166 vlineto
          -186 13 -83 -76 -107 vvcurveto
          -90 59 -44 53 -18 vhcurveto
          84 callsubr
        </CharString>
        <CharString name="dvD_GA">
          170 callgsubr
          -99 158 callgsubr
          52 vlineto
          24 6 20 11 16 15 rrcurveto
          -382 187 114 callgsubr
          201 230 hlineto
          endchar
        </CharString>
        <CharString name="dvD_GHA">
          274 307 5 rmoveto
          212 callsubr
          31 15 17 -3 -6 18 hvcurveto
          -3 -15 -1 -16 -17 vvcurveto
          -70 20 -51 31 -37 vhcurveto
          -67 -10 -34 -41 -52 hhcurveto
          636 566 -79 callsubr
          -954 -169 646 -61 -16 vlineto
          -73 -64 -19 -37 -47 hvcurveto
          25 -46 -60 17 -56 hhcurveto
          -156 -70 -73 -99 -90 59 -44 53 -18 hvcurveto
          84 callsubr
        </CharString>
        <CharString name="dvD_G_RA">
          170 callgsubr
          -48 158 callgsubr
          1 vlineto
          24 6 20 11 16 15 rrcurveto
          -138 vlineto
          -309 -305 rlineto
          196 hlineto
          125 136 rlineto
          -75 175 114 callgsubr
          201 230 hlineto
          endchar
        </CharString>
        <CharString name="dvD_MA">
          240 230 -163 rmoveto
          43 36 9 29 vhcurveto
          37 -35 hlineto
          -39 -14 -26 -35 -33 -20 21 27 vhcurveto
          288 217 rmoveto
          1 210 rlineto
          -224 hlineto
          -28 -17 14 22 22 17 15 28 hvcurveto
          198 234 130 -517 hlineto
          286 517 -79 callsubr
          -920 -169 305 -61 -23 vlineto
          -127 -95 -58 -148 -134 102 -68 124 hvcurveto
          59 -47 -23 hlineto
          -136 -122 -46 -166 -139 90 -82 143 160 73 98 153 hvcurveto
          16 104 -281 203 963 vlineto
          endchar
        </CharString>
        <CharString name="dvD_NA">
          770 698 -325 -47 callgsubr
          317 591 41 callsubr
          -1450 -169 335 -61 -15 vlineto
          -27 callsubr
          629 -80 -278 hlineto
          147 callgsubr
        </CharString>
        <CharString name="dvD_R">
          -46 699 -325 -47 callgsubr
          131 896 -79 callsubr
          -634 260 callgsubr
          -104 48 -63 64 -30 hvcurveto
          -131 -158 rlineto
          25 callsubr
        </CharString>
        <CharString name="dvD_RA">
          -46 623 -63 callsubr
          -634 260 callgsubr
          -104 48 -63 64 -30 hvcurveto
          -131 -158 rlineto
          25 callsubr
        </CharString>
        <CharString name="dvD_VA">
          -41 628 -63 callsubr
          -639 -169 345 -61 -16 vlineto
          -156 -109 -80 -139 -74 27 -53 40 -33 hvcurveto
          125 callsubr
          -243 -660 179 callsubr
          endchar
        </CharString>
        <CharString name="dvD_YA">
          62 322 174 rmoveto
          -41 -19 12 23 18 14 13 26 hvcurveto
          52 153 -52 hlineto
          -26 -14 13 16 18 16 12 24 hvcurveto
          53 119 99 -265 hlineto
          -97 -66 -35 -66 vhcurveto
          409 397 -79 callsubr
          -741 -169 171 -49 vlineto
          -45 -2 -61 -26 -74 vvcurveto
          -54 36 -37 61 -13 vhcurveto
          -6 vlineto
          -58 -17 -37 -41 -65 vvcurveto
          -104 94 -59 122 85 59 25 41 37 vhcurveto
          -90 200 278 callsubr
        </CharString>
        <CharString name="dvE">
          -5 664 -63 callsubr
          -675 -169 80 vlineto
          243 callsubr
          147 102 80 144 vhcurveto
          73 callsubr
          vlineto
          endchar
        </CharString>
        <CharString name="dvEcandra">
          -5 664 -63 callsubr
          -675 -169 80 vlineto
          243 callsubr
          147 102 80 144 vhcurveto
          73 callsubr
          vlineto
          -4 470 18 callsubr
        </CharString>
        <CharString name="dvEight">
          35 callsubr
        </CharString>
        <CharString name="dvEyelash">
          -267 410 428 rmoveto
          -13 -23 -28 -12 -42 hhcurveto
          -49 -40 23 62 -5 hvcurveto
          -194 hlineto
          -169 7 121 -61 131 hhcurveto
          77 75 25 36 50 hvcurveto
          1 252 -79 callsubr
          -502 249 callsubr
        </CharString>
        <CharString name="dvEyelash_HA">
          191 815 86 -83 callgsubr
          -870 -169 556 -40 -48 hlineto
          -94 -54 -45 -61 -11 hvcurveto
          -2 -7 -9 -1 -11 hhcurveto
          -46 -30 29 41 hvcurveto
          -193 hlineto
          -146 4 111 -83 118 hhcurveto
          56 35 11 14 24 hvcurveto
          -48 -37 -29 -56 -74 vvcurveto
          -149 104 -89 151 136 103 73 130 8 vhcurveto
          endchar
        </CharString>
        <CharString name="dvEyelash_YA">
          376 631 232 rmoveto
          -78 callsubr
          -1056 -169 463 -31 vlineto
          -62 -12 -57 -96 -6 vhcurveto
          0 vlineto
          -45 -3 -64 24 62 vvcurveto
          -193 hlineto
          7 -172 130 -64 141 -3 rrcurveto
          -121 29 93 -75 144 -75 callgsubr
        </CharString>
        <CharString name="dvFive">
          81 callgsubr
        </CharString>
        <CharString name="dvFour">
          133 callgsubr
        </CharString>
        <CharString name="dvG">
          -70 599 -63 callsubr
          -610 219 callgsubr
          vlineto
          -104 callgsubr
          vlineto
          endchar
        </CharString>
        <CharString name="dvGA">
          201 793 173 callgsubr
          -881 219 callgsubr
          vlineto
          -104 callgsubr
          93 -571 vlineto
          endchar
        </CharString>
        <CharString name="dvGH">
          -298 595 -63 callsubr
          -606 201 callsubr
          164 182 96 124 143 vhcurveto
          170 callsubr
        </CharString>
        <CharString name="dvGHA">
          33 317 109 callsubr
          24 34 hvcurveto
          19 241 callsubr
          -713 201 callsubr
          113 63 54 18 38 39 vhcurveto
          -143 19 callgsubr
        </CharString>
        <CharString name="dvGH_MA">
          595 982 471 rmoveto
          -94 100 94 hlineto
          -336 -363 -94 callgsubr
          -328 44 rmoveto
          -31 -25 13 26 24 17 16 33 hvcurveto
          52 163 -36 hlineto
          -46 -14 24 34 hvcurveto
          19 430 -100 -44 vlineto
          -109 -96 -45 -99 -30 hvcurveto
          -4 -10 rlineto
          -55 -22 -37 -10 -38 hhcurveto
          946 319 -79 callsubr
          -1275 98 callgsubr
          87 -61 136 61 59 15 34 43 vhcurveto
          -63 40 74 -37 95 61 callgsubr
        </CharString>
        <CharString name="dvGH_NA">
          556 595 266 -104 callsubr
          -277 -14 rmoveto
          -31 -25 148 callgsubr
          24 34 hvcurveto
          19 677 277 callsubr
          -113 -103 -49 -108 -30 hvcurveto
          -6 -15 rlineto
          -57 -22 -37 -10 -38 hhcurveto
          908 319 -79 callsubr
          -1237 98 callgsubr
          85 -61 133 65 65 16 38 44 vhcurveto
          -67 44 78 -35 81 hhcurveto
          -17 callsubr
        </CharString>
        <CharString name="dvGH_R">
          -298 595 -63 callsubr
          -606 31 callsubr
          -108 79 -61 134 -11 vhcurveto
          -112 -135 rlineto
          217 hlineto
          173 239 rlineto
          0 vlineto
          32 45 17 57 59 vvcurveto
          170 callsubr
        </CharString>
        <CharString name="dvGH_RA">
          33 317 109 callsubr
          29 34 hvcurveto
          14 241 callsubr
          -713 31 callsubr
          -90 61 -55 81 -19 vhcurveto
          -125 -151 rlineto
          218 hlineto
          132 183 rlineto
          -137 19 callgsubr
        </CharString>
        <CharString name="dvGH_YA">
          487 317 109 callsubr
          24 34 hvcurveto
          19 295 273 callgsubr
          -8 hlineto
          -3 -21 -1 -19 -1 -20 rrcurveto
          0 vlineto
          -55 -27 -47 -78 vhcurveto
          425 -20 rmoveto
          -78 callsubr
          -1167 201 callsubr
          164 73 59 20 33 45 vhcurveto
          -49 46 69 -28 88 -75 callgsubr
        </CharString>
        <CharString name="dvG_BA">
          561 1154 hmoveto
          -6 callsubr
          -1241 219 callgsubr
          vlineto
          -104 callgsubr
          462 141 callsubr
          -142 -102 -98 -138 289 callsubr
          hvcurveto
          -85 vlineto
          -96 182 rmoveto
          -60 -51 41 65 8 1 8 2 8 hvcurveto
          168 -114 rlineto
          -10 -17 -20 -6 -23 hhcurveto
          213 vmoveto
          -29 callsubr
          endchar
        </CharString>
        <CharString name="dvG_BHA">
          764 812 208 rmoveto
          -28 -21 15 33 33 26 16 -28 callsubr
          -26 -36 vhcurveto
          241 69 184 callsubr
          -26 -3 -6 -24 vhcurveto
          -756 219 callgsubr
          hlineto
          -104 callgsubr
          315 vlineto
          3 6 8 2 5 hhcurveto
          24 9 -18 -24 hvcurveto
          -63 -43 vlineto
          -133 -113 -66 -150 281 callsubr
          hvcurveto
          endchar
        </CharString>
        <CharString name="dvG_BH_YA">
          1182 812 42 callgsubr
          67 vlineto
          -148 14 97 -94 161 22 callsubr
          -125 25 hlineto
          167 callgsubr
          -29 245 callgsubr
          -757 219 callgsubr
          hlineto
          -104 callgsubr
          101 254 callsubr
          -45 callsubr
          -43 vlineto
          -133 150 callsubr
          97 144 callsubr
          79 95 146 hvcurveto
          385 -45 rmoveto
          -76 -40 41 47 -2 hvcurveto
          109 18 31 77 -68 callgsubr
          endchar
        </CharString>
        <CharString name="dvG_DA">
          487 1155 253 callgsubr
          -1167 219 callgsubr
          hlineto
          -104 callgsubr
          360 -61 -15 vlineto
          46 callgsubr
          endchar
        </CharString>
        <CharString name="dvG_DHA">
          609 1207 hmoveto
          571 72 285 callgsubr
          vlineto
          -93 -53 -61 -91 -50 -27 15 28 225 callgsubr
          vhcurveto
          -90 callgsubr
          -24 -22 -3 -6 -21 vhcurveto
          -707 219 callgsubr
          hlineto
          -104 callgsubr
          70 -5 vlineto
          77 callgsubr
          -48 -14 -63 -43 -86 vvcurveto
          -123 106 -63 125 89 65 25 46 43 vhcurveto
          -136 vlineto
          endchar
        </CharString>
        <CharString name="dvG_DH_VA">
          963 1556 hmoveto
          -6 callsubr
          -603 -169 328 -106 vlineto
          -44 callgsubr
          -24 -22 -3 -6 -21 vhcurveto
          -707 219 callgsubr
          hlineto
          -104 callgsubr
          70 -5 vlineto
          77 callgsubr
          -48 -14 -63 -43 -86 vvcurveto
          -132 110 -56 147 102 62 33 48 39 vhcurveto
          160 callsubr
          vlineto
          -77 203 rmoveto
          -49 -30 34 42 216 callsubr
          hvcurveto
          endchar
        </CharString>
        <CharString name="dvG_DH_YA">
          1066 1321 232 20 callsubr
          -707 219 callgsubr
          hlineto
          -104 callgsubr
          70 -5 vlineto
          132 callgsubr
          vlineto
          endchar
        </CharString>
        <CharString name="dvG_GA">
          733 1326 173 callgsubr
          -1414 219 callgsubr
          vlineto
          -104 callgsubr
          329 -207 vlineto
          -104 callgsubr
          93 -571 vlineto
          endchar
        </CharString>
        <CharString name="dvG_GHA">
          561 845 109 callsubr
          24 34 hvcurveto
          19 241 callsubr
          -1241 219 callgsubr
          vlineto
          -104 callgsubr
          96 -29 vlineto
          -75 35 -39 47 -16 vhcurveto
          -4 vlineto
          -46 -18 -45 -48 -73 vvcurveto
          -121 98 -61 113 63 54 18 38 39 vhcurveto
          -143 19 callgsubr
        </CharString>
        <CharString name="dvG_JA">
          751 1420 -63 callsubr
          -1431 219 callgsubr
          vlineto
          -104 callgsubr
          644 -90 -267 -156 vlineto
          -89 callgsubr
          212 callgsubr
        </CharString>
        <CharString name="dvG_LA">
          794 1138 5 rmoveto
          -61 callsubr
          -1474 219 callgsubr
          vlineto
          -104 callgsubr
          607 -67 vlineto
          -52 -14 -35 -31 -23 -41 rrcurveto
          -100 callgsubr
          -44 -54 -34 -26 -40 -5 -12 1 1 -9 vhcurveto
          -177 vlineto
          -1 16 12 0 7 hhcurveto
          endchar
        </CharString>
        <CharString name="dvG_MA">
          760 1147 471 rmoveto
          -94 100 94 hlineto
          -336 -363 -94 callgsubr
          618 363 -79 callsubr
          -1440 219 callgsubr
          vlineto
          -104 callgsubr
          367 156 callgsubr
        </CharString>
        <CharString name="dvG_NA">
          718 757 109 callgsubr
          -1399 219 callgsubr
          vlineto
          -104 callgsubr
          611 136 callsubr
        </CharString>
        <CharString name="dvG_NNA">
          777 831 291 -13 callgsubr
          616 208 callsubr
          -1458 219 callgsubr
          vlineto
          -104 callgsubr
          94 180 callsubr
        </CharString>
        <CharString name="dvG_N_YA">
          1163 757 232 rmoveto
          -9 callsubr
          -1844 219 callgsubr
          vlineto
          -104 callgsubr
          744 204 callsubr
          -282 hlineto
          -98 callsubr
          93 hlineto
          -139 28 93 -86 143 -50 callsubr
          vlineto
          endchar
        </CharString>
        <CharString name="dvG_R">
          -70 633 387 rmoveto
          -433 -407 rlineto
          234 hlineto
          199 200 rlineto
          391 vmoveto
          169 -644 -19 callgsubr
          vlineto
          endchar
        </CharString>
        <CharString name="dvG_RA">
          200 793 hmoveto
          -6 callsubr
          -880 -19 callgsubr
          93 -225 vlineto
          -389 -366 rlineto
          234 hlineto
          160 161 rlineto
          -141 vlineto
          endchar
        </CharString>
        <CharString name="dvG_R_YA">
          639 894 232 rmoveto
          -78 callsubr
          -1319 -19 callgsubr
          219 33 callgsubr
          -5 0 -5 -4 vvcurveto
          -374 -351 rlineto
          234 hlineto
          188 189 rlineto
          -67 46 77 -39 104 -75 callgsubr
        </CharString>
        <CharString name="dvG_SA">
          710 975 520 3 callsubr
          -1390 219 callgsubr
          vlineto
          -104 callgsubr
          275 -51 vlineto
          60 callgsubr
          312 -269 -27 callgsubr
        </CharString>
        <CharString name="dvG_VA">
          536 853 203 -71 callsubr
          -1216 219 callgsubr
          hlineto
          -104 callgsubr
          434 146 callsubr
        </CharString>
        <CharString name="dvG_YA">
          639 894 232 rmoveto
          -78 callsubr
          -1319 219 callgsubr
          vlineto
          -104 callgsubr
          219 28 callgsubr
          endchar
        </CharString>
        <CharString name="dvGx">
          -70 599 -63 callsubr
          -610 219 callgsubr
          vlineto
          -104 callgsubr
          vlineto
          -117 -594 -28 callgsubr
        </CharString>
        <CharString name="dvGxA">
          200 793 173 callgsubr
          -881 219 callgsubr
          vlineto
          -104 callgsubr
          93 -571 vlineto
          -210 -23 -28 callgsubr
        </CharString>
        <CharString name="dvGx_R">
          -70 633 387 rmoveto
          -433 -407 rlineto
          234 hlineto
          199 200 rlineto
          391 vmoveto
          169 -644 -19 callgsubr
          vlineto
          -301 -480 -8 callsubr
          endchar
        </CharString>
        <CharString name="dvGx_RA">
          200 793 hmoveto
          -6 callsubr
          -880 -19 callgsubr
          93 -225 vlineto
          -389 -366 rlineto
          234 hlineto
          160 161 rlineto
          -141 vlineto
          -399 91 -8 callsubr
          endchar
        </CharString>
        <CharString name="dvH">
          -74 551 86 -83 callgsubr
          -606 200 callsubr
          hlineto
          -105 -56 -56 -73 -45 19 -39 39 -27 hvcurveto
          70 callsubr
          -7 -483 -47 callgsubr
          endchar
        </CharString>
        <CharString name="dvHA">
          -74 551 86 -83 callgsubr
          -606 200 callsubr
          hlineto
          -105 -56 -56 -73 -45 19 -39 39 -27 hvcurveto
          137 callgsubr
        </CharString>
        <CharString name="dvHA_mU">
          -74 342 -361 rmoveto
          152 98 77 131 135 -82 75 -162 -52 -48 15 54 41 30 17 26 31 24 -22 -39 hvcurveto
          191 hlineto
          122 -74 99 -167 208 callgsubr
          vhcurveto
          -4 5 -2 6 6 vvcurveto
          20 15 8 19 vhcurveto
          167 183 120 169 -606 200 callsubr
          hlineto
          256 callsubr
          -38 38 -27 hvcurveto
          -50 -36 -30 -55 -72 vvcurveto
          -154 112 -76 187 49 22 -21 -32 -28 -26 -21 -49 -50 -35 22 48 vhcurveto
          -180 hlineto
          -155 -1 128 -73 136 hhcurveto
          endchar
        </CharString>
        <CharString name="dvHA_mUU">
          -74 324 -197 rmoveto
          -23 hlineto
          -29 -31 12 35 38 37 12 31 88 31 -56 -103 hvcurveto
          -77 164 vlineto
          1 23 1 23 25 vvcurveto
          147 -46 175 -235 vhcurveto
          -34 1 -31 17 51 vvcurveto
          41 30 17 26 31 27 -22 -45 -3 vhcurveto
          191 hlineto
          125 4 -78 102 -167 hhcurveto
          283 callgsubr
          20 15 8 19 vhcurveto
          167 183 120 169 -606 200 callsubr
          hlineto
          -105 -56 -56 -73 -45 18 -37 38 -27 hvcurveto
          -49 -35 -30 -54 -71 vvcurveto
          -68 25 -51 46 -36 vhcurveto
          -26 -33 -15 -43 -51 vvcurveto
          -132 98 -60 110 vhcurveto
          37 hlineto
          endchar
        </CharString>
        <CharString name="dvHA_mvR">
          24 440 -290 rmoveto
          133 vlineto
          -118 -118 52 140 109 65 65 110 60 36 -5 -16 20 hvcurveto
          1 -14 -13 0 -14 hhcurveto
          -118 -67 -56 -91 -113 94 -38 85 31 30 3 11 32 hvcurveto
          117 vlineto
          -5 -14 -26 -6 -28 hhcurveto
          -30 -28 9 28 22 16 16 33 hvcurveto
          180 hlineto
          147 -1 -85 106 -186 236 callsubr
          324 183 71 169 -704 195 callgsubr
          -219 173 -122 222 9 vhcurveto
          endchar
        </CharString>
        <CharString name="dvH_LA">
          58 380 -274 rmoveto
          128 vlineto
          -77 -104 50 131 112 67 67 113 69 40 -26 -34 20 hvcurveto
          -12 -8 -10 -11 -7 -13 rrcurveto
          -1 hlineto
          32 -20 -31 20 -48 hhcurveto
          -68 -67 -38 -97 -86 54 -61 99 3 7 0 1 9 hvcurveto
          101 vlineto
          -1 -6 -4 0 -4 hhcurveto
          -22 -16 13 29 21 13 13 17 19 11 -17 -20 hvcurveto
          -13 107 13 vlineto
          20 11 17 19 16 14 -13 -22 -28 -16 -13 -22 -4 -3 0 1 -5 vhcurveto
          -101 vlineto
          -1 9 5 0 5 hhcurveto
          99 54 61 86 68 -34 40 -43 17 hvcurveto
          102 -25 -85 73 -154 236 callsubr
          325 183 104 169 -738 195 callgsubr
          -208 163 -116 172 8 vhcurveto
          endchar
        </CharString>
        <CharString name="dvH_MA">
          730 274 360 rmoveto
          20 15 8 19 vhcurveto
          167 183 358 -100 -44 hlineto
          -102 -91 -40 -87 -36 hvcurveto
          -251 265 callsubr
          507 -152 88 callsubr
          -1410 105 callsubr
          31 hvcurveto
          246 hlineto
          -92 29 85 -56 117 61 callgsubr
        </CharString>
        <CharString name="dvH_NA">
          692 274 360 rmoveto
          20 15 8 19 vhcurveto
          167 183 604 -80 -278 hlineto
          -110 -99 -46 -101 -34 hvcurveto
          -249 265 callsubr
          455 -94 41 callsubr
          -1371 105 callsubr
          33 hvcurveto
          250 hlineto
          -95 34 94 -50 96 hhcurveto
          -17 callsubr
        </CharString>
        <CharString name="dvH_NNA">
          67 386 5 rmoveto
          -13 -7 10 16 hvcurveto
          178 vlineto
          7 7 0 7 7 6 0 6 hhcurveto
          -178 vlineto
          -16 -8 -10 -12 vhcurveto
          -4 -279 rmoveto
          135 vlineto
          -75 -99 43 131 65 4 50 40 29 hvcurveto
          -136 vlineto
          -74 43 -61 91 90 43 58 77 vhcurveto
          135 vlineto
          41 -32 1 -57 -76 vvcurveto
          -107 146 107 vlineto
          181 -82 145 -243 -32 -31 -3 -5 -29 vhcurveto
          -18 5 -8 12 13 vvcurveto
          19 15 8 19 vhcurveto
          352 183 87 169 -748 -169 489 -44 -246 hlineto
          -105 -55 -54 -71 -54 27 -44 57 -27 hvcurveto
          -71 -50 -40 -79 -106 272 callgsubr
        </CharString>
        <CharString name="dvH_R">
          21 callsubr
          -11 -473 -47 callgsubr
          endchar
        </CharString>
        <CharString name="dvH_RA">
          21 callsubr
          endchar
        </CharString>
        <CharString name="dvH_VA">
          5 450 -5 rmoveto
          -26 -16 18 24 24 16 18 26 hvcurveto
          26 -1 14 -18 -21 vvcurveto
          -2 vlineto
          -23 -14 -19 -26 vhcurveto
          -68 -269 rmoveto
          -3 135 rlineto
          -70 -96 43 131 106 63 57 96 64 40 -22 -41 11 hvcurveto
          20 -19 -27 13 -34 hhcurveto
          -81 -55 -51 -80 -69 48 -63 88 38 31 16 26 18 hvcurveto
          -105 145 221 vlineto
          152 -87 124 -204 -22 -21 -2 -4 -21 vhcurveto
          -14 6 -6 11 11 vvcurveto
          19 15 8 19 vhcurveto
          293 183 82 169 -684 -169 427 -44 -184 hlineto
          -105 -55 -54 -71 -54 27 -44 56 -26 hvcurveto
          -66 -50 -44 -79 -107 272 callgsubr
        </CharString>
        <CharString name="dvH_YA">
          245 570 23 rmoveto
          -31 -19 11 16 -11 hvcurveto
          36 17 30 38 63 vvcurveto
          109 -86 62 -151 -21 -20 -1 -3 -19 vhcurveto
          -12 6 -5 10 10 vvcurveto
          19 15 8 18 vhcurveto
          255 183 103 -444 hlineto
          -52 -15 -52 -67 vhcurveto
          265 -185 rmoveto
          733 79 169 -925 -169 384 -44 -144 vlineto
          -106 -55 -54 -71 -50 24 -43 49 -26 hvcurveto
          -63 -46 -37 -73 -94 vvcurveto
          -190 157 -107 166 8 vhcurveto
          138 vlineto
          -63 -86 36 108 83 51 46 71 44 23 -16 -24 -25 -14 -16 -54 hvcurveto
          -5 hlineto
          -1 -8 0 -9 -8 vvcurveto
          -109 66 -90 134 56 42 17 29 29 vhcurveto
          -95 vlineto
          endchar
        </CharString>
        <CharString name="dvI">
          -81 589 -63 callsubr
          -601 45 callsubr
          94 hlineto
          92 callgsubr
          hlineto
          endchar
        </CharString>
        <CharString name="dvII">
          -81 265 5 rmoveto
          92 callgsubr
          117 169 -123 61 hlineto
          180 callgsubr
          -58 -290 45 callsubr
          hlineto
          endchar
        </CharString>
        <CharString name="dvII_Anusvara">
          -81 265 5 rmoveto
          92 callgsubr
          117 169 -123 72 hlineto
          53 30 38 51 51 26 -32 -29 3 vhcurveto
          162 hlineto
          142 4 -94 75 -146 hhcurveto
          -197 -70 -139 -108 hvcurveto
          -72 -298 45 callsubr
          hlineto
          332 906 29 callsubr
        </CharString>
        <CharString name="dvJ">
          -105 712 308 rmoveto
          173 -376 -156 vlineto
          -89 callgsubr
          177 263 -79 callsubr
          -723 249 callsubr
        </CharString>
        <CharString name="dvJA">
          214 883 -63 callsubr
          -894 -169 614 -90 -267 -156 vlineto
          -89 callgsubr
          212 callgsubr
        </CharString>
        <CharString name="dvJH">
          -103 697 -63 callsubr
          -708 -86 callsubr
          177 152 -415 149 callgsubr
          hlineto
          endchar
        </CharString>
        <CharString name="dvJHA">
          224 282 339 rmoveto
          27 callgsubr
          144 -232 hlineto
          200 -339 200 callgsubr
          -904 -86 callsubr
          96 -187 hlineto
          endchar
        </CharString>
        <CharString name="dvJH_MA">
          764 1151 471 rmoveto
          -94 100 94 hlineto
          -336 -363 -94 callgsubr
          -533 131 rmoveto
          27 callgsubr
          395 -100 -44 hlineto
          -104 -92 -41 -91 -35 hvcurveto
          841 232 -79 callsubr
          -1444 -86 callsubr
          67 hlineto
          -94 28 86 -57 118 61 callgsubr
        </CharString>
        <CharString name="dvJH_NA">
          722 282 339 rmoveto
          27 callgsubr
          639 -80 -278 hlineto
          -111 -102 -48 -104 -32 hvcurveto
          173 -73 41 callsubr
          -1403 -86 callsubr
          70 hlineto
          -97 34 95 -51 97 hhcurveto
          -17 callsubr
        </CharString>
        <CharString name="dvJH_R">
          -103 774 -63 callsubr
          -785 -86 callsubr
          208 hlineto
          -299 -306 rlineto
          203 hlineto
          142 158 rlineto
          300 -492 vlineto
          27 callgsubr
          hlineto
          endchar
        </CharString>
        <CharString name="dvJH_RA">
          321 282 339 rmoveto
          27 callgsubr
          242 -232 hlineto
          200 -339 rmoveto
          -6 callsubr
          -1001 -86 callsubr
          200 -8 hlineto
          -291 -298 rlineto
          203 hlineto
          110 119 rlineto
          endchar
        </CharString>
        <CharString name="dvJH_YA">
          638 282 339 rmoveto
          27 callgsubr
          242 -31 hlineto
          67 callsubr
          vvcurveto
          -6 vlineto
          320 -107 rmoveto
          -78 callsubr
          -1318 -86 callsubr
          90 hlineto
          -78 44 81 -46 113 -75 callgsubr
        </CharString>
        <CharString name="dvJ_BA">
          583 883 182 rmoveto
          -60 -51 41 65 8 1 8 2 8 hvcurveto
          168 -114 rlineto
          -10 -17 -20 -6 -23 hhcurveto
          292 -182 rmoveto
          -6 callsubr
          -1262 -169 990 141 callsubr
          -57 -50 -16 -27 -40 hvcurveto
          -356 -156 hlineto
          -89 callgsubr
          61 hlineto
          -1 -6 0 -7 -7 vvcurveto
          289 callsubr
          vhcurveto
          -85 vlineto
          -96 395 34 callgsubr
          endchar
        </CharString>
        <CharString name="dvJ_DA">
          510 1178 253 callgsubr
          -1190 -169 890 -61 -15 hlineto
          -53 -48 -10 -19 -40 hvcurveto
          -387 -156 hlineto
          -72 callsubr
          149 92 95 135 4 vhcurveto
          65 hlineto
          -2 -12 -1 -13 -14 vvcurveto
          -160 23 callgsubr
        </CharString>
        <CharString name="dvJ_DDA">
          438 1107 -63 callsubr
          -1118 -169 827 -45 -44 vlineto
          -56 -49 -15 -30 -33 hvcurveto
          -298 -156 hlineto
          -89 callgsubr
          62 hlineto
          -97 31 108 -14 60 hhcurveto
          -51 callgsubr
        </CharString>
        <CharString name="dvJ_JA">
          778 1447 -63 callsubr
          -1458 -169 1178 -90 -267 -156 vlineto
          135 callgsubr
          -16 23 44 vhcurveto
          156 -470 -156 vlineto
          -89 callgsubr
          66 hlineto
          -134 5 83 -94 165 227 callgsubr
        </CharString>
        <CharString name="dvJ_JHA">
          774 832 339 rmoveto
          27 callgsubr
          144 -232 hlineto
          200 -339 200 callgsubr
          -1454 -169 836 -43 -45 vlineto
          -56 -49 -15 -32 -34 hvcurveto
          -305 -156 hlineto
          -89 callgsubr
          69 hlineto
          25 -75 74 -30 63 -4 rrcurveto
          -2 28 20 0 21 hhcurveto
          40 14 -15 -21 -20 -14 -13 -25 -25 -19 12 28 hvcurveto
          -183 -257 192 94 hlineto
          -13 21 37 -12 44 hhcurveto
          99 60 63 89 20 -2 18 -4 17 hvcurveto
          96 -187 hlineto
          endchar
        </CharString>
        <CharString name="dvJ_J_NYA">
          759 1351 173 callgsubr
          -1439 -169 1161 -91 -814 -155 vlineto
          135 callgsubr
          -16 23 44 vhcurveto
          155 -205 -161 vlineto
          -140 84 -99 169 151 93 98 140 1 vhcurveto
          311 hlineto
          25 36 -16 -43 -30 -17 -28 -41 -41 -22 27 33 -4 hvcurveto
          -191 -293 199 107 hlineto
          -26 31 44 -14 50 hhcurveto
          96 81 63 106 50 -17 37 -25 27 hvcurveto
          100 -318 hlineto
          endchar
        </CharString>
        <CharString name="dvJ_J_VA">
          1129 1446 203 -71 callsubr
          -1809 -169 1534 75 callsubr
          -51 -43 -13 -23 -34 hvcurveto
          -360 -156 hlineto
          135 callgsubr
          -16 23 44 vhcurveto
          156 -470 -156 vlineto
          -89 callgsubr
          66 hlineto
          -134 5 83 -94 165 hhcurveto
          55 callgsubr
          hvcurveto
          69 hlineto
          -1 -8 0 -8 -8 3 callgsubr
          endchar
        </CharString>
        <CharString name="dvJ_J_YA">
          1231 1486 232 rmoveto
          -69 -39 36 42 -8 hvcurveto
          97 27 42 80 85 vvcurveto
          69 111 87 callgsubr
          -1911 -169 1319 -31 vlineto
          -51 -15 -48 -114 vhcurveto
          -279 -116 hlineto
          182 callsubr
          -31 -17 23 44 vhcurveto
          116 -470 -116 vlineto
          135 callgsubr
          -16 23 44 vhcurveto
          116 -205 -122 vlineto
          -140 84 -99 169 133 88 76 112 20 vhcurveto
          75 hlineto
          -112 19 82 -76 147 hhcurveto
          134 89 77 115 19 hvcurveto
          31 27 0 1 22 hvcurveto
          -130 29 92 -80 144 -50 callsubr
          vlineto
          endchar
        </CharString>
        <CharString name="dvJ_KA">
          848 1140 -70 callsubr
          -1528 -169 955 -46 callsubr
          -47 -39 -11 -21 -32 hvcurveto
          -358 -156 hlineto
          -89 callgsubr
          68 hlineto
          -1 -10 0 -10 -10 vvcurveto
          -134 73 -101 129 -16 callsubr
          vhcurveto
          -100 14 callsubr
        </CharString>
        <CharString name="dvJ_MA">
          785 1172 473 rmoveto
          -95 98 95 hlineto
          -336 -362 199 callsubr
          37 -40 hlineto
          -31 -14 -27 -37 vhcurveto
          618 362 -79 callsubr
          -1465 -169 898 -98 -551 -148 vlineto
          135 callgsubr
          -16 23 44 vhcurveto
          148 -205 -154 vlineto
          -140 84 -99 169 149 92 95 136 4 vhcurveto
          75 hlineto
          -6 -20 -3 -22 -25 vvcurveto
          -125 96 -81 143 158 79 94 146 vhcurveto
          29 95 -307 19 callgsubr
        </CharString>
        <CharString name="dvJ_NA">
          758 784 256 rmoveto
          33 24 24 33 33 24 -24 -33 -32 -24 -24 -33 -34 -23 24 32 vhcurveto
          630 315 -79 callsubr
          -1425 -169 1144 -90 -797 -156 vlineto
          -89 callgsubr
          71 hlineto
          -3 -16 -2 -18 -19 vvcurveto
          -147 116 -79 121 116 104 64 134 34 -7 28 -10 24 vhcurveto
          92 -313 63 callgsubr
          endchar
        </CharString>
        <CharString name="dvJ_NY">
          -106 720 -63 callsubr
          -731 -169 vlineto
          731 -245 rmoveto
          162 -476 -162 52 vlineto
          64 callgsubr
          endchar
        </CharString>
        <CharString name="dvJ_NYA">
          209 801 173 callgsubr
          -889 -169 611 -83 -356 -162 52 vlineto
          64 callgsubr
          98 -326 hlineto
          endchar
        </CharString>
        <CharString name="dvJ_NY_YA">
          672 927 232 rmoveto
          -63 -34 29 37 -15 hvcurveto
          96 34 38 83 87 -51 callsubr
          -1352 -169 759 -31 vlineto
          -39 -5 -36 -27 -24 vhcurveto
          31 -42 -59 16 -78 hhcurveto
          -293 -162 52 hlineto
          64 callgsubr
          32 hlineto
          40 28 -15 -39 16 hvcurveto
          -129 29 86 -80 149 -75 callgsubr
        </CharString>
        <CharString name="dvJ_R">
          82 callsubr
          endchar
        </CharString>
        <CharString name="dvJ_RA">
          72 callsubr
          endchar
        </CharString>
        <CharString name="dvJ_TA">
          616 1285 -63 callsubr
          -1296 -169 1016 -83 -669 -163 vlineto
          135 callgsubr
          -16 23 44 vhcurveto
          163 -205 -169 vlineto
          -140 84 -99 169 150 93 96 138 2 vhcurveto
          85 hlineto
          -12 -26 -6 -30 -34 vvcurveto
          -151 123 -72 135 vhcurveto
          10 callsubr
          111 -314 63 callgsubr
          endchar
        </CharString>
        <CharString name="dvJ_TTA">
          541 1210 -63 callsubr
          -1221 -169 873 -53 vlineto
          -55 -3 -47 -13 -38 -21 rrcurveto
          -386 -156 hlineto
          -89 callgsubr
          66 hlineto
          -2 -14 -1 -14 -15 vvcurveto
          -158 -85 callsubr
          endchar
        </CharString>
        <CharString name="dvJ_VA">
          565 882 203 -71 callsubr
          -1245 -169 970 75 callsubr
          -51 -43 -13 -23 -34 hvcurveto
          -360 -156 hlineto
          -89 callgsubr
          69 hlineto
          -1 -8 0 -8 -8 3 callgsubr
          endchar
        </CharString>
        <CharString name="dvJ_YA">
          667 922 232 rmoveto
          -69 -40 36 43 -7 hvcurveto
          96 26 43 80 85 vvcurveto
          69 110 -196 vlineto
          -80 -42 140 callsubr
          -1347 -169 754 -31 vlineto
          -51 -14 -48 -114 vhcurveto
          -279 -116 hlineto
          135 callgsubr
          -16 23 44 vhcurveto
          116 -205 -122 vlineto
          -140 84 -99 169 134 89 77 115 18 vhcurveto
          32 26 0 1 23 hvcurveto
          -130 29 92 -80 230 callgsubr
          19 callgsubr
        </CharString>
        <CharString name="dvJx">
          -105 712 308 rmoveto
          173 -376 -156 vlineto
          -89 callgsubr
          177 263 -79 callsubr
          -723 -169 vlineto
          414 71 callgsubr
          endchar
        </CharString>
        <CharString name="dvJxA">
          214 883 -63 callsubr
          -894 -169 614 -90 -267 -156 vlineto
          -89 callgsubr
          68 -308 63 callgsubr
          -404 71 callgsubr
          endchar
        </CharString>
        <CharString name="dvJx_JxA">
          778 403 -77 rmoveto
          -99 callgsubr
          564 hmoveto
          -99 callgsubr
          480 648 -79 callsubr
          -1458 -169 1178 -90 -267 -156 vlineto
          135 callgsubr
          -16 23 44 vhcurveto
          156 -470 -156 vlineto
          -89 callgsubr
          66 hlineto
          -134 5 83 -94 165 227 callgsubr
        </CharString>
        <CharString name="dvJx_R">
          82 callsubr
          -23 94 -8 callsubr
          endchar
        </CharString>
        <CharString name="dvJx_RA">
          72 callsubr
          -572 -535 -8 callsubr
          endchar
        </CharString>
        <CharString name="dvJx_YA">
          667 1336 -63 callsubr
          -1347 -169 754 -31 vlineto
          -51 -14 -48 -114 vhcurveto
          -279 -116 hlineto
          135 callgsubr
          -16 23 44 vhcurveto
          116 -205 -122 vlineto
          -140 84 -99 169 134 89 77 115 18 vhcurveto
          32 26 0 1 23 hvcurveto
          -130 29 92 -80 230 callgsubr
          153 callgsubr
          vlineto
          -857 71 callgsubr
          519 309 rmoveto
          -69 -40 36 43 -7 hvcurveto
          96 26 43 80 85 vvcurveto
          69 283 callsubr
        </CharString>
        <CharString name="dvK">
          68 callgsubr
          -68 90 callsubr
          endchar
        </CharString>
        <CharString name="dvKA">
          288 580 -70 callsubr
          -968 -97 callsubr
          14 callsubr
        </CharString>
        <CharString name="dvKH">
          42 callsubr
          196 -271 -66 callgsubr
          endchar
        </CharString>
        <CharString name="dvKHA">
          319 658 249 71 callsubr
          -46 -154 105 callgsubr
          -251 71 -23 callsubr
          endchar
        </CharString>
        <CharString name="dvKH_KHA">
          983 604 300 -66 callgsubr
          718 -51 rmoveto
          -31 -23 18 36 34 23 19 31 33 17 -25 -28 1 hvcurveto
          -33 -21 -21 -30 vhcurveto
          253 -249 200 callgsubr
          -1663 -75 callsubr
          38 35 7 12 31 hvcurveto
          -78 50 89 -42 116 hhcurveto
          296 callgsubr
          hvcurveto
          -1 9 204 callgsubr
          -1012 166 rmoveto
          -63 callgsubr
          458 -71 vlineto
          -33 -6 -27 -16 -19 vhcurveto
          53 -37 -64 32 -82 hhcurveto
          -135 -101 -7 callsubr
          664 hmoveto
          196 callsubr
          -112 -76 -90 -116 -38 8 -36 15 -31 hvcurveto
          -17 -15 -26 -15 -44 hhcurveto
          endchar
        </CharString>
        <CharString name="dvKH_MA">
          898 1285 471 296 callsubr
          -681 -271 -66 callgsubr
          345 -92 -9 callgsubr
        </CharString>
        <CharString name="dvKH_NA">
          862 901 266 rmoveto
          32 23 24 34 33 24 -24 -32 -33 -24 -23 -33 -34 -23 23 33 vhcurveto
          -297 34 -66 callgsubr
          -243 -134 rmoveto
          -63 callgsubr
          842 277 callsubr
          -61 -54 -14 -30 -40 hvcurveto
          38 -39 -57 21 -70 hhcurveto
          -134 -92 -7 callsubr
          1170 405 -79 callsubr
          -1542 -75 callsubr
          47 41 10 19 33 hvcurveto
          -54 42 67 -28 73 hhcurveto
          114 97 0 callgsubr
          endchar
        </CharString>
        <CharString name="dvKH_R">
          35 callgsubr
          196 -271 -66 callgsubr
          endchar
        </CharString>
        <CharString name="dvKH_RA">
          319 912 hmoveto
          -6 callsubr
          -999 47 callgsubr
          163 227 rlineto
          -1 10 10 -1 11 hhcurveto
          161 callsubr
          vlineto
          -51 249 71 callsubr
          -297 -83 -23 callsubr
          endchar
        </CharString>
        <CharString name="dvKH_SHA">
          867 604 300 -42 callgsubr
        </CharString>
        <CharString name="dvKH_TA">
          711 604 300 -17 callgsubr
        </CharString>
        <CharString name="dvKH_VA">
          662 1256 hmoveto
          571 75 169 -1342 -75 callsubr
          40 35 7 14 30 hvcurveto
          -45 32 51 -27 73 hhcurveto
          54 100 callgsubr
          vlineto
          -452 300 -66 callgsubr
          375 -97 rmoveto
          -49 -29 34 42 42 29 289 callgsubr
          -618 -37 rmoveto
          -63 callgsubr
          648 182 callgsubr
          -59 -45 -17 -29 -32 hvcurveto
          23 -36 -45 12 -54 hhcurveto
          -134 -92 -7 callsubr
          endchar
        </CharString>
        <CharString name="dvKH_YA">
          770 604 300 -24 callgsubr
        </CharString>
        <CharString name="dvKHx">
          42 callsubr
          36 -734 rmoveto
          -99 callgsubr
          160 463 -66 callgsubr
          endchar
        </CharString>
        <CharString name="dvKHxA">
          319 612 95 105 callgsubr
          -168 -258 rmoveto
          -99 callgsubr
          214 412 71 callsubr
          -297 -83 -23 callsubr
          endchar
        </CharString>
        <CharString name="dvKHx_MA">
          898 444 -163 rmoveto
          -99 callgsubr
          160 463 -66 callgsubr
          681 171 296 callsubr
          -336 -363 -9 callgsubr
        </CharString>
        <CharString name="dvKHx_R">
          35 callgsubr
          -237 -636 -8 callsubr
          433 365 -66 callgsubr
          endchar
        </CharString>
        <CharString name="dvKHx_RA">
          319 912 hmoveto
          -6 callsubr
          -999 47 callgsubr
          163 227 rlineto
          -1 10 10 -1 11 hhcurveto
          161 callsubr
          vlineto
          -538 -65 -8 callsubr
          487 314 71 callsubr
          -297 -83 -23 callsubr
          endchar
        </CharString>
        <CharString name="dvKHx_SA">
          848 480 -170 rmoveto
          -99 callgsubr
          124 470 -66 callgsubr
          -243 -134 rmoveto
          -63 callgsubr
          501 -51 vlineto
          -48 -12 -38 -55 -15 vhcurveto
          56 -38 -68 31 -85 187 callsubr
          -34 15 -28 hvcurveto
          -18 -15 -27 -16 -45 hhcurveto
          752 354 3 callsubr
          -1528 -169 214 -48 vlineto
          174 callgsubr
          33 31 5 10 28 hvcurveto
          -69 34 73 -47 107 hhcurveto
          142 81 235 callgsubr
          -8 18 19 vhcurveto
          68 311 -269 19 callgsubr
        </CharString>
        <CharString name="dvKHx_SHA">
          867 480 -170 rmoveto
          -99 callgsubr
          124 470 -42 callgsubr
        </CharString>
        <CharString name="dvKHx_TA">
          711 480 -170 rmoveto
          -99 callgsubr
          124 470 -17 callgsubr
        </CharString>
        <CharString name="dvKHx_VA">
          662 480 -170 rmoveto
          -99 callgsubr
          124 470 -66 callgsubr
          375 -97 rmoveto
          -49 -29 34 42 42 29 289 callgsubr
          277 -203 rmoveto
          571 75 169 -1342 -75 callsubr
          40 35 7 14 30 hvcurveto
          -45 32 51 -27 73 hhcurveto
          54 100 callgsubr
          vlineto
          -695 166 rmoveto
          -63 callgsubr
          648 182 callgsubr
          -59 -45 -17 -29 -32 hvcurveto
          23 -36 -45 12 -54 hhcurveto
          -134 -92 -7 callsubr
          endchar
        </CharString>
        <CharString name="dvKHx_YA">
          770 480 -170 rmoveto
          -99 callgsubr
          124 470 -24 callgsubr
        </CharString>
        <CharString name="dvK_CA">
          652 868 294 rmoveto
          35 28 15 28 vhcurveto
          46 159 -254 hlineto
          -64 -44 -16 -31 -28 hvcurveto
          115 460 -192 vlineto
          -86 -31 -51 -68 -2 vhcurveto
          -42 -1 -31 18 37 vvcurveto
          -552 -80 -106 callgsubr
          1005 357 -79 callsubr
          -1332 -93 callsubr
          269 vlineto
          45 21 30 51 vhcurveto
          70 hlineto
          -29 -26 -16 -36 -43 vvcurveto
          -115 86 -52 114 68 57 21 41 38 vhcurveto
          -134 19 callgsubr
        </CharString>
        <CharString name="dvK_DA">
          608 168 callgsubr
          399 -61 -16 hlineto
          -55 -49 -11 -20 -41 hvcurveto
          21 -30 -37 13 -46 206 callsubr
          -264 -247 -106 callgsubr
          961 357 -79 callsubr
          -1288 -89 callsubr
          41 16 -31 -31 vhcurveto
          0 vlineto
          -2 0 -3 -2 vvcurveto
          -160 107 -67 103 45 37 12 22 25 vhcurveto
          -122 200 311 -189 vlineto
          -35 -20 -28 -38 -37 -24 24 38 41 29 29 51 vhcurveto
          198 235 hlineto
          endchar
        </CharString>
        <CharString name="dvK_JA">
          870 316 90 callsubr
          630 44 rmoveto
          -32 -16 23 44 hvcurveto
          6 vlineto
          84 -60 98 -133 -54 207 callgsubr
          679 237 callgsubr
          -1550 -89 callsubr
          41 16 -26 -30 vhcurveto
          -1 vlineto
          -104 82 -99 168 76 callgsubr
          212 callgsubr
        </CharString>
        <CharString name="dvK_KA">
          233 callsubr
          -40 -35 -9 -15 -29 hvcurveto
          15 -28 -32 9 -38 206 callsubr
          -264 -247 -106 callgsubr
          919 13 callgsubr
          -68 90 callsubr
          endchar
        </CharString>
        <CharString name="dvK_KHA">
          962 168 callgsubr
          265 -48 hlineto
          -28 -5 -23 -10 -19 vhcurveto
          31 -29 -40 19 -56 46 callsubr
          1238 -214 200 callgsubr
          -1642 -89 callsubr
          41 16 -31 -31 vhcurveto
          -2 vlineto
          -177 116 -108 187 296 callgsubr
          vhcurveto
          -1 9 204 callgsubr
          -52 249 rmoveto
          -30 -23 240 callsubr
          -296 -83 rmoveto
          196 callsubr
          -113 -75 -90 -116 -38 8 -36 15 -31 hvcurveto
          -17 -15 -26 -15 -44 hhcurveto
          endchar
        </CharString>
        <CharString name="dvK_LA">
          916 1115 418 rmoveto
          -3 hlineto
          162 callsubr
          -49 -49 -12 -26 -41 hvcurveto
          18 -25 -30 11 -37 hhcurveto
          -54 -43 -17 -31 -28 hvcurveto
          116 645 65 callgsubr
          -799 -204 -106 callgsubr
          264 53 rmoveto
          103 callgsubr
          -31 vhcurveto
          0 vlineto
          -4 0 -5 -5 vvcurveto
          78 callsubr
          175 7 12 0 1 16 vhcurveto
          -84 callsubr
          -1596 -93 callsubr
          vlineto
          endchar
        </CharString>
        <CharString name="dvK_MA">
          881 169 callsubr
          -389 -289 2 callsubr
        </CharString>
        <CharString name="dvK_NA">
          840 168 callgsubr
          648 -80 -278 hlineto
          -44 -43 -8 -15 -37 hvcurveto
          29 -26 -39 16 -56 206 callsubr
          298 -195 -104 callsubr
          -562 -52 -106 callgsubr
          1193 357 -79 callsubr
          -1520 -89 callsubr
          38 16 -26 -29 3 vhcurveto
          -1 -6 0 -7 -7 vvcurveto
          5 callgsubr
        </CharString>
        <CharString name="dvK_NNA">
          875 168 callgsubr
          107 -77 hlineto
          -46 -3 -36 -15 -25 -26 rrcurveto
          -264 -236 -106 callgsubr
          612 77 -13 callgsubr
          616 208 callsubr
          -1555 -89 callsubr
          28 16 -14 -18 8 vhcurveto
          1 -9 2 -9 2 -8 rrcurveto
          -3 1 vlineto
          -92 25 75 -67 131 hhcurveto
          162 78 101 133 hvcurveto
          217 95 -571 -27 callgsubr
        </CharString>
        <CharString name="dvK_PA">
          653 168 callgsubr
          98 -69 hlineto
          -42 -5 -33 -15 -23 -25 rrcurveto
          -264 -243 -106 callgsubr
          645 93 rmoveto
          -86 callgsubr
          -1334 127 callsubr
          -17 -21 6 vhcurveto
          0 vlineto
          -98 28 73 -68 115 30 callgsubr
        </CharString>
        <CharString name="dvK_PHA">
          950 168 callgsubr
          101 -69 hlineto
          -43 -4 -34 -16 -24 -25 rrcurveto
          -264 -243 -106 callgsubr
          640 93 15 callsubr
          -1630 127 callsubr
          -16 -20 6 vhcurveto
          -98 25 72 -70 114 hhcurveto
          55 43 16 27 30 hvcurveto
          -179 -106 callsubr
          endchar
        </CharString>
        <CharString name="dvK_P_RA">
          653 168 callgsubr
          98 -69 hlineto
          -42 -5 -33 -15 -23 -25 rrcurveto
          -264 -243 -106 callgsubr
          645 93 rmoveto
          -86 callgsubr
          -1334 -89 callsubr
          30 17 -17 -21 6 vhcurveto
          0 vlineto
          22 -69 45 -53 69 -22 16 callsubr
        </CharString>
        <CharString name="dvK_R">
          19 580 hmoveto
          267 vlineto
          43 3 18 30 38 hhcurveto
          193 callsubr
          hvcurveto
          207 hlineto
          128 -66 107 199 callgsubr
          324 169 -915 -169 395 145 callgsubr
          -68 90 callsubr
          endchar
        </CharString>
        <CharString name="dvK_RA">
          288 580 hmoveto
          -22 callsubr
          -968 -169 395 145 callgsubr
          -68 90 callsubr
          endchar
        </CharString>
        <CharString name="dvK_SA">
          822 -65 callgsubr
          771 306 3 callsubr
          -1502 -170 395 -109 vlineto
          -94 callsubr
          -30 vhcurveto
          -68 vlineto
          9 callsubr
          312 -269 -27 callgsubr
        </CharString>
        <CharString name="dvK_SHA">
          868 316 90 callsubr
          389 289 rmoveto
          -54 -43 -19 -31 -28 hvcurveto
          118 355 vlineto
          2 8 2 0 7 hhcurveto
          28 11 -20 -23 -75 -75 -16 -73 -2 hvcurveto
          40 -28 -45 26 -65 hhcurveto
          484 -290 rmoveto
          -39 callgsubr
          -37 -9 232 callsubr
          7 vlineto
          158 131 74 176 150 -99 82 -142 -28 -26 -3 -6 -24 hvcurveto
          -890 118 callsubr
          -44 vlineto
          -148 99 -92 158 144 92 79 140 vhcurveto
          272 -213 111 callsubr
        </CharString>
        <CharString name="dvK_SS">
          -80 260 528 -67 callsubr
          409 146 -217 hlineto
          20 27 13 33 41 -39 callsubr
          endchar
        </CharString>
        <CharString name="dvK_SSA">
          241 260 528 -67 callsubr
          327 -321 195 107 callgsubr
          -272 -273 -135 hlineto
          20 27 13 33 41 -39 callsubr
          endchar
        </CharString>
        <CharString name="dvK_SS_MA">
          807 859 204 rmoveto
          -27 -22 16 33 32 26 16 37 hvcurveto
          37 -38 hlineto
          -33 -14 -26 -37 vhcurveto
          -599 324 -67 callsubr
          319 hlineto
          -6 -21 -3 -23 -25 vvcurveto
          -134 97 282 callsubr
          -301 205 -6 callsubr
          -855 -169 289 -104 -407 vlineto
          20 27 13 33 41 -39 callsubr
          834 535 rmoveto
          -95 104 95 hlineto
          endchar
        </CharString>
        <CharString name="dvK_SS_M_YA">
          1249 856 194 199 callsubr
          37 -39 hlineto
          -32 -14 -27 -37 vhcurveto
          -596 334 -67 callsubr
          319 hlineto
          -8 -23 -4 -26 -30 vvcurveto
          -133 97 144 callsubr
          79 94 147 vhcurveto
          28 91 vlineto
          -137 21 95 -86 154 hhcurveto
          78 60 22 37 41 hvcurveto
          -128 204 107 callgsubr
          -1300 -169 289 -113 -412 vlineto
          25 29 16 35 46 -39 callsubr
          883 526 rmoveto
          -147 113 228 -32 hlineto
          -40 -11 -41 -70 vhcurveto
          260 -221 rmoveto
          -73 -40 40 44 -5 hvcurveto
          94 22 46 80 84 vvcurveto
          64 111 -191 102 callgsubr
          -90 vhcurveto
          endchar
        </CharString>
        <CharString name="dvK_SS_VA">
          584 260 528 -67 callsubr
          313 hlineto
          -1 -12 -1 -12 -13 vvcurveto
          -135 78 -108 144 147 callsubr
          -645 -169 370 182 callgsubr
          -61 -49 -19 -31 -37 hvcurveto
          -194 hlineto
          20 27 13 33 41 -39 callsubr
          541 271 -25 callsubr
          139 callsubr
          -46 hvcurveto
          endchar
        </CharString>
        <CharString name="dvK_SS_YA">
          682 260 528 -67 callsubr
          308 hlineto
          -157 10 110 -101 163 hhcurveto
          73 56 21 35 39 hvcurveto
          -119 205 -6 callsubr
          -738 -169 145 -32 vlineto
          -44 -36 -37 -63 vhcurveto
          -164 hlineto
          25 29 16 35 46 -39 callsubr
          576 300 rmoveto
          -72 -40 47 53 -5 hvcurveto
          105 30 35 88 89 vvcurveto
          32 283 callsubr
        </CharString>
        <CharString name="dvK_S_DDA">
          1068 -65 callgsubr
          772 306 rmoveto
          51 358 -45 -44 vlineto
          -80 -65 -31 -60 -26 hvcurveto
          -154 11 callsubr
          649 221 callgsubr
          -1748 -170 395 -109 vlineto
          -94 callsubr
          -30 vhcurveto
          -68 vlineto
          -22 callgsubr
          142 81 77 119 5 0 9 -1 11 vhcurveto
          -195 -13 hlineto
          -18 -9 -17 -22 -22 -9 18 19 vhcurveto
          68 347 vlineto
          -62 44 85 -10 51 hhcurveto
          -51 callgsubr
        </CharString>
        <CharString name="dvK_S_P_LA">
          1752 -65 callgsubr
          772 306 rmoveto
          51 112 -136 -123 vlineto
          -36 callgsubr
          390 -213 62 callsubr
          -321 -120 rmoveto
          5 0 9 -1 11 vhcurveto
          -195 -13 hlineto
          -18 -9 -17 -22 -22 -9 18 19 vhcurveto
          68 329 vlineto
          -80 37 76 -53 112 hhcurveto
          37 33 6 12 28 hvcurveto
          -91 37 86 -58 129 hhcurveto
          7 12 0 1 16 hvcurveto
          -84 callsubr
          -2431 -170 395 -109 vlineto
          -94 callsubr
          -30 vhcurveto
          -68 vlineto
          -22 callgsubr
          142 81 77 119 vhcurveto
          endchar
        </CharString>
        <CharString name="dvK_S_P_RA">
          1176 -65 callgsubr
          771 306 126 callgsubr
          -1856 -170 395 -109 vlineto
          -94 callsubr
          -30 vhcurveto
          -68 vlineto
          9 callsubr
          329 vlineto
          25 -53 41 -39 57 -19 16 callsubr
        </CharString>
        <CharString name="dvK_S_TA">
          1218 -65 callgsubr
          771 306 rmoveto
          51 519 303 callsubr
          -72 -68 -17 -36 -51 hvcurveto
          -218 11 callsubr
          800 221 callgsubr
          -1898 -170 395 -109 vlineto
          -94 callsubr
          -30 vhcurveto
          -68 vlineto
          9 callsubr
          304 vlineto
          -1 -8 0 -9 -9 9 callgsubr
        </CharString>
        <CharString name="dvK_S_TTA">
          1145 -65 callgsubr
          771 306 179 callgsubr
          -1824 -170 395 -109 vlineto
          -94 callsubr
          -30 vhcurveto
          -68 vlineto
          9 callsubr
          303 vlineto
          -1 0 -1 -2 vvcurveto
          -158 -85 callsubr
          endchar
        </CharString>
        <CharString name="dvK_TA">
          427 1096 -63 callsubr
          -1107 -169 531 -84 -479 -171 116 vlineto
          -14 -27 -8 -33 -39 144 callgsubr
          29 53 hvcurveto
          93 -313 197 251 hlineto
          43 22 29 40 40 17 -31 -30 -36 -23 -22 -32 -7 -6 1 1 -3 vhcurveto
          -158 vlineto
          -7 27 21 -2 24 hhcurveto
          119 87 83 144 123 -67 108 -132 -55 -44 -19 -33 -28 hvcurveto
          126 vlineto
          endchar
        </CharString>
        <CharString name="dvK_THA">
          802 316 90 callsubr
          389 289 rmoveto
          -54 -43 -19 -31 -28 hvcurveto
          118 315 0 vlineto
          3 7 5 2 9 hhcurveto
          18 12 -16 -21 -55 -42 -25 -72 -8 hvcurveto
          32 -28 -42 20 -57 hhcurveto
          690 -503 rmoveto
          567 76 173 -280 -296 vlineto
          -139 -81 -65 -99 -79 -32 36 29 -11 vhcurveto
          177 10 72 100 188 callgsubr
          -92 81 -128 -24 -23 247 callgsubr
          -859 -169 395 -110 hlineto
          50 callsubr
          -134 73 -101 129 -16 callsubr
          hvcurveto
          -100 196 267 vlineto
          46 21 27 38 30 17 -17 -22 7 vhcurveto
          -145 25 112 -84 150 hhcurveto
          105 181 callgsubr
        </CharString>
        <CharString name="dvK_TTA">
          639 168 callgsubr
          380 -53 hlineto
          -57 -3 -48 -14 -39 -22 rrcurveto
          21 -29 -36 13 -46 206 callsubr
          -264 -247 -106 callgsubr
          992 357 -79 callsubr
          -1319 -89 callsubr
          41 16 -31 -31 vhcurveto
          0 vlineto
          -4 0 -5 -4 vvcurveto
          -158 -85 callsubr
          endchar
        </CharString>
        <CharString name="dvK_T_RA">
          715 168 callgsubr
          527 -105 hlineto
          27 -38 -52 17 -61 hhcurveto
          -59 -50 -13 -24 -40 hvcurveto
          25 -28 -36 15 -43 hhcurveto
          -52 -41 -18 -32 -27 hvcurveto
          -264 -249 -106 callgsubr
          1067 357 -79 callsubr
          -1394 -89 callsubr
          39 17 -29 -56 2 vhcurveto
          -1 0 -4 -4 vvcurveto
          204 hlineto
          69 47 35 62 28 28 -9 -14 20 vhcurveto
          131 callgsubr
        </CharString>
        <CharString name="dvK_T_VA">
          1032 690 503 rmoveto
          -47 -38 -15 -27 -25 hvcurveto
          110 846 116 callgsubr
          -46 -39 -10 -19 -32 hvcurveto
          -198 hlineto
          -66 -63 -14 -31 -50 hvcurveto
          37 -24 -38 23 -45 hhcurveto
          -374 -289 -106 callgsubr
          1033 -11 -71 callsubr
          -1712 -169 395 -110 hlineto
          50 callsubr
          -134 73 -101 129 -16 callsubr
          hvcurveto
          -100 196 267 vlineto
          46 21 26 38 41 13 -34 -56 -1 vhcurveto
          0 vlineto
          -2 0 -2 -2 vvcurveto
          -34 callsubr
          85 hlineto
          -1 -10 0 -10 -10 3 callgsubr
          endchar
        </CharString>
        <CharString name="dvK_T_YA">
          1125 974 489 rmoveto
          -66 -62 -14 -31 -50 hvcurveto
          36 -25 -39 23 -51 hhcurveto
          -43 -34 -14 -25 -24 hvcurveto
          107 622 117 callsubr
          -658 -275 -106 callgsubr
          1065 18 rmoveto
          -68 -40 34 41 -8 hvcurveto
          92 23 46 83 89 -51 callsubr
          -1806 -93 callgsubr
          26 38 32 22 -30 -52 -1 vhcurveto
          0 vlineto
          -4 0 -4 -4 vvcurveto
          -177 95 callgsubr
          vhcurveto
          -20 callsubr
        </CharString>
        <CharString name="dvK_VA">
          658 580 -11 callgsubr
          352 537 rmoveto
          -1339 118 callsubr
          1 hlineto
          -132 2 77 -105 142 hhcurveto
          11 callgsubr
          vlineto
          endchar
        </CharString>
</ttFont>
